
<!--
<svg xmlns="http://www.w3.org/2000/svg" version="1.1" viewBox="80.16 162.04 351.84 115.12">
<path d="M0 0 C2.76266564 1.21856185 4.17959652 3.14658155 6.11053467 5.44564819 C8.84687906 8.60091176 11.52387284 11.52587169 14.73553467 14.19564819 C18.78720859 17.60163703 22.25439799 21.47078431 25.77825928 25.4024353 C29.04495709 29.01581705 32.47209512 32.22840828 36.20037842 35.35189819 C38.38924265 37.28839926 40.14509611 39.46192017 41.86053467 41.82064819 C40.87053467 43.14064819 39.88053467 44.46064819 38.86053467 45.82064819 C35.07873775 44.53321066 32.85763269 43.14774289 30.18865967 40.18783569 C29.5285791 39.46781372 28.86849854 38.74779175 28.18841553 38.00595093 C27.50271484 37.24355103 26.81701416 36.48115112 26.11053467 35.69564819 C21.19883997 30.34305332 16.30605384 25.22389723 10.75115967 20.52767944 C8.0394552 18.07930164 5.75690325 15.32429518 3.46600342 12.48471069 C1.72377883 10.67890127 0.11169037 9.88243221 -2.13946533 8.82064819 C-15.87806513 18.06576775 -32.72245334 29.89314754 -37.15698242 46.67019653 C-40.87987346 66.65879774 -38.20397831 87.92244399 -37.13946533 107.82064819 C-11.06946533 107.82064819 15.00053467 107.82064819 41.86053467 107.82064819 C42.19053467 109.47064819 42.52053467 111.12064819 42.86053467 112.82064819 C38.52141543 114.97208111 34.59616406 115.06191018 29.85736084 114.9559021 C29.06659149 114.94644058 28.27582214 114.93697906 27.46109009 114.92723083 C24.85832018 114.89366636 22.25603788 114.84552062 19.65350342 114.79721069 C17.84462238 114.77103187 16.03572792 114.7457658 14.2268219 114.72137451 C9.47393768 114.65483819 4.72133691 114.5759206 -0.03131104 114.49441528 C-4.88430939 114.41338323 -9.73747362 114.34407286 -14.59063721 114.27377319 C-24.10711207 114.13419736 -33.62332865 113.98153971 -43.13946533 113.82064819 C-43.16379387 112.56765678 -43.16379387 112.56765678 -43.18861389 111.28935242 C-43.27128105 107.37887501 -43.36709899 103.46887555 -43.47149658 99.55892944 C-43.48994944 98.84984247 -43.50840229 98.1407555 -43.52741432 97.41018105 C-43.76141443 88.93571444 -44.27558363 80.66956189 -45.71368408 72.30111694 C-47.66678991 59.08492263 -48.39447414 47.08952988 -40.07745361 35.87680054 C-34.9153086 29.57847595 -29.28241772 23.80855759 -23.38946533 18.19564819 C-22.89544094 17.72441402 -22.40141655 17.25317986 -21.89242172 16.76766586 C-16.87208115 12.00812952 -11.73297142 7.37757257 -6.44903564 2.91195679 C-5.7117926 2.28727509 -4.97454956 1.66259338 -4.21496582 1.01898193 C-2.13946533 -0.17935181 -2.13946533 -0.17935181 0 0 Z " fill="#000000" transform="translate(127.13946533203125,162.17935180664063)"/>
<path d="M0 0 C2.97 0 5.94 0 9 0 C11.23816593 6.30755854 12.7944003 12.41557086 14 19 C16.475 9.595 16.475 9.595 19 0 C22.3 0 25.6 0 29 0 C31.00993705 4.01987409 31.55305762 6.83787308 32.125 11.25 C32.37636719 13.14492187 32.37636719 13.14492187 32.6328125 15.078125 C32.75398438 16.04234375 32.87515625 17.0065625 33 18 C33.66 18 34.32 18 35 18 C35.04898438 17.3709375 35.09796875 16.741875 35.1484375 16.09375 C35.63435199 10.53086686 36.50553626 5.38006948 38 0 C41.3 0 44.6 0 48 0 C47.28711357 6.83182833 45.37397276 13.28222837 43.5 19.875 C43.17902344 21.02742188 42.85804688 22.17984375 42.52734375 23.3671875 C40.13127309 31.86872691 40.13127309 31.86872691 39 33 C37.31391034 33.07205511 35.62499341 33.08386068 33.9375 33.0625 C33.01839844 33.05347656 32.09929687 33.04445312 31.15234375 33.03515625 C30.44207031 33.02355469 29.73179687 33.01195312 29 33 C28.32586789 31.08594633 27.6609668 29.16863974 27 27.25 C26.62875 26.18265625 26.2575 25.1153125 25.875 24.015625 C25 21 25 21 25 17 C24.34 17 23.68 17 23 17 C22.896875 17.969375 22.79375 18.93875 22.6875 19.9375 C22.05095782 24.50562625 20.53528795 28.66114276 19 33 C15.7 33 12.4 33 9 33 C0 6.52427184 0 6.52427184 0 0 Z " fill="#EAEAEA" transform="translate(310,217)"/>
<path d="M0 0 C9 0 9 0 11.03149414 1.56054688 C11.44520264 2.27275391 11.85891113 2.98496094 12.28515625 3.71875 C12.75244141 4.48574219 13.21972656 5.25273437 13.70117188 6.04296875 C14.15041016 6.85378906 14.59964844 7.66460937 15.0625 8.5 C15.54654297 9.31082031 16.03058594 10.12164062 16.52929688 10.95703125 C17.7157759 12.95407515 18.86197466 14.97495305 20 17 C20.33 11.39 20.66 5.78 21 0 C23.64 0 26.28 0 29 0 C29 10.89 29 21.78 29 33 C26.03 33 23.06 33 20 33 C17.57106573 30.40088562 16.12788575 28.51176274 14.4375 25.5 C14.00115234 24.78457031 13.56480469 24.06914062 13.11523438 23.33203125 C12.0475521 21.57211542 11.01967598 19.78815829 10 18 C9.67 22.95 9.34 27.9 9 33 C6.03 33 3.06 33 0 33 C0 22.11 0 11.22 0 0 Z " fill="#17202a " transform="translate(279,217)"/>
<path d="M0 0 C5.00230198 2.45567552 8.49851535 5.9970307 11 11 C11.50282832 16.50638223 11.71321529 21.40239776 9.4375 26.5 C4.98829139 31.06329088 0.38851571 33.61116613 -5.95703125 34.08984375 C-11.42775267 33.84925753 -15.60245179 31.80915965 -19.4375 27.9375 C-22.74897866 23.65791146 -23.368341 19.31952939 -23 14 C-21.28568987 8.19039346 -18.39926288 4.07449662 -13.17578125 0.88671875 C-8.94837492 -0.8361201 -4.4720985 -0.52574743 0 0 Z M-11.9375 10.0625 C-13.58916681 13.07436301 -13.88214109 15.58209158 -14 19 C-12.65437601 21.94755732 -11.91445456 23.54277272 -9 25 C-5.58428147 25.50031206 -5.58428147 25.50031206 -2 25 C1.22456813 22.27151928 1.91290117 20.62057913 2.5 16.4375 C2.23476305 13.02102062 2.23476305 13.02102062 0.5 10.5625 C-3.41600857 8.11499464 -7.7286256 7.75440759 -11.9375 10.0625 Z " fill="#EAEAEA" transform="translate(265,217)"/>
<path d="M0 0 C2.87525599 0.97214316 4.20129607 2.03423595 6.32188416 4.18566895 C7.02223282 4.88631973 7.72258148 5.58697052 8.44415283 6.30885315 C9.18392868 7.06927414 9.92370453 7.82969513 10.68589783 8.61315918 C11.45568466 9.3886058 12.2254715 10.16405243 13.01858521 10.96299744 C15.47322779 13.44001657 17.91359267 15.93058496 20.35386658 18.42175293 C22.01635581 20.10430529 23.67975675 21.78595732 25.34410095 23.4666748 C29.42049011 27.58714845 33.48524552 31.71883146 37.54136658 35.85925293 C38.20136658 35.52925293 38.86136658 35.19925293 39.54136658 34.85925293 C35.58136658 30.89925293 31.62136658 26.93925293 27.54136658 22.85925293 C27.87136658 22.19925293 28.20136658 21.53925293 28.54136658 20.85925293 C30.5065328 22.6020609 32.46337027 24.35289698 34.41636658 26.10925293 C34.97195251 26.60038574 35.52753845 27.09151855 36.09996033 27.59753418 C38.89986294 30.12756666 41.19645179 32.28416298 42.54136658 35.85925293 C41.55136658 36.84925293 40.56136658 37.83925293 39.54136658 38.85925293 C35.75956966 37.5718154 33.5384646 36.18634763 30.86949158 33.22644043 C30.20941101 32.50641846 29.54933044 31.78639648 28.86924744 31.04455566 C28.18354675 30.28215576 27.49784607 29.51975586 26.79136658 28.73425293 C21.87967188 23.38165806 16.98688575 18.26250196 11.43199158 13.56628418 C8.7202871 11.11790638 6.43773516 8.36289992 4.14683533 5.52331543 C2.40461074 3.717506 0.79252228 2.92103695 -1.45863342 1.85925293 C-15.19723322 11.10437249 -32.04162143 22.93175228 -36.47615051 39.70880127 C-40.19904155 59.69740248 -37.52314641 80.96104872 -36.45863342 100.85925293 C-10.38863342 100.85925293 15.68136658 100.85925293 42.54136658 100.85925293 C42.87136658 102.50925293 43.20136658 104.15925293 43.54136658 105.85925293 C39.20224734 108.01068584 35.27699597 108.10051492 30.53819275 107.99450684 C29.7474234 107.98504532 28.95665405 107.9755838 28.141922 107.96583557 C25.53915209 107.93227109 22.93686979 107.88412535 20.33433533 107.83581543 C18.52545429 107.8096366 16.71655983 107.78437054 14.90765381 107.75997925 C10.15476959 107.69344293 5.40216882 107.61452534 0.64952087 107.53302002 C-4.20347748 107.45198797 -9.05664171 107.38267759 -13.9098053 107.31237793 C-23.42628016 107.17280209 -32.94249674 107.02014445 -42.45863342 106.85925293 C-42.48499878 106.03407166 -42.51136414 105.20889038 -42.53852844 104.35870361 C-42.61762894 101.88624426 -42.69695415 99.4137921 -42.77644348 96.94134521 C-42.86755991 94.10556262 -42.95744823 91.26974439 -43.04658508 88.43389893 C-43.2740982 81.24588373 -43.52634162 74.06018695 -43.83815002 66.87524414 C-43.97482034 63.45339504 -44.06311904 60.03148824 -44.13832092 56.60778809 C-44.18622326 54.90559193 -44.25545359 53.20389344 -44.34339905 51.5032959 C-45.09652768 36.44353346 -45.09652768 36.44353346 -40.9566803 31.2166748 C-38.3596416 28.4262362 -35.53849842 26.09743139 -32.45863342 23.85925293 C-32.45863342 24.84925293 -32.45863342 25.83925293 -32.45863342 26.85925293 C-33.7371293 27.96055408 -35.05710468 29.01404501 -36.39613342 30.04089355 C-40.89785124 34.41012034 -41.36426095 38.1344636 -41.5071106 44.27814484 C-41.51778677 46.50400061 -41.48887425 48.72735832 -41.45863342 50.95300293 C-41.46616125 52.51100688 -41.47720342 54.06899744 -41.49159241 55.62695312 C-41.5199013 59.70448579 -41.50082098 63.7804389 -41.47151184 67.85791016 C-41.45004309 72.02773088 -41.47388337 76.19727328 -41.49378967 80.36706543 C-41.5261495 88.53152758 -41.50839518 96.69488003 -41.45863342 104.85925293 C-39.74704041 104.85055176 -39.74704041 104.85055176 -38.00086975 104.8416748 C-22.0893373 104.7882711 -6.18428232 105.04892023 9.72416687 105.32281494 C13.32532129 105.38442871 16.92650941 105.44400734 20.5276947 105.50378418 C27.5322852 105.62034136 34.53683742 105.73906073 41.54136658 105.85925293 C41.54136658 104.86925293 41.54136658 103.87925293 41.54136658 102.85925293 C40.72297302 102.86710815 40.72297302 102.86710815 39.88804626 102.87512207 C14.10108186 103.08023385 -11.67921269 102.4052625 -37.45863342 101.85925293 C-38.59073587 89.74410806 -38.81149664 77.61377676 -38.91859436 65.45300293 C-38.94541346 63.12955349 -38.98656429 60.80622774 -39.04164124 58.48327637 C-39.12077878 55.08989661 -39.15387197 51.69873213 -39.17738342 48.30456543 C-39.22687134 46.75903488 -39.22687134 46.75903488 -39.27735901 45.18228149 C-39.26279335 39.91902372 -38.83790278 36.64921542 -35.3419342 32.59143066 C-34.06693276 31.32746347 -32.77244025 30.08283511 -31.45863342 28.85925293 C-30.32714434 27.66922952 -29.20118915 26.47391669 -28.08119202 25.27307129 C-25.01245637 22.09936282 -21.91757848 18.95135211 -18.81507874 15.81066895 C-17.48428421 14.45806618 -16.1598042 13.09922407 -14.84144592 11.73449707 C-12.92336185 9.74983919 -10.98660288 7.78529187 -9.04457092 5.82409668 C-8.45799713 5.20969223 -7.87142334 4.59528778 -7.26707458 3.96226501 C-3.10628488 -0.17782256 -3.10628488 -0.17782256 0 0 Z " class="dynamic-fill" transform="translate(126.45863342285156,169.1407470703125)"/>
<path d="M0 0 C1.47906892 -0.02689216 2.95827483 -0.04634621 4.4375 -0.0625 C5.26121094 -0.07410156 6.08492187 -0.08570313 6.93359375 -0.09765625 C9 0 9 0 10 1 C10.15764405 2.77869726 10.25100677 4.56318476 10.31640625 6.34765625 C10.37924805 7.96704102 10.37924805 7.96704102 10.44335938 9.61914062 C10.48267578 10.75544922 10.52199219 11.89175781 10.5625 13.0625 C10.60568359 14.20267578 10.64886719 15.34285156 10.69335938 16.51757812 C10.79982839 19.34492195 10.90184207 22.17235738 11 25 C13.97065509 24.65772428 13.97065509 24.65772428 17 24 C18.23060421 21.53879159 18.2057723 19.74223134 18.31640625 16.9921875 C18.35830078 16.00605469 18.40019531 15.01992187 18.44335938 14.00390625 C18.48267578 12.97136719 18.52199219 11.93882812 18.5625 10.875 C18.60568359 9.83472656 18.64886719 8.79445312 18.69335938 7.72265625 C18.7996288 5.14857472 18.90166583 2.57439492 19 0 C20.47906892 -0.02689216 21.95827483 -0.04634621 23.4375 -0.0625 C24.26121094 -0.07410156 25.08492187 -0.08570313 25.93359375 -0.09765625 C28 0 28 0 29 1 C29.28102796 4.1785965 29.23191624 7.37297679 29.25 10.5625 C29.270625 11.44486328 29.29125 12.32722656 29.3125 13.23632812 C29.34774395 19.19696038 28.55402481 23.5900562 26 29 C22.32698588 32.33133839 18.88314411 33.71098556 14.01953125 34.1015625 C9.45253556 33.87188767 6.04548368 31.88040731 2.625 29 C-0.13666093 25.6010327 -0.11997943 22.67611245 -0.09765625 18.45703125 C-0.09443359 17.38388672 -0.09121094 16.31074219 -0.08789062 15.20507812 C-0.07951172 14.08552734 -0.07113281 12.96597656 -0.0625 11.8125 C-0.05798828 10.68134766 -0.05347656 9.55019531 -0.04882812 8.38476562 C-0.03703498 5.58979073 -0.0205765 2.7949218 0 0 Z " fill="#17202a" transform="translate(138,217)"/>
<path d="M0 0 C3.63 0 7.26 0 11 0 C12.57058493 4.37682832 14.13705846 8.75509751 15.69970703 13.13476562 C16.23210143 14.62508016 16.76562555 16.11499161 17.30029297 17.60449219 C18.06774099 19.74309502 18.83114081 21.88310517 19.59375 24.0234375 C19.83436157 24.69120209 20.07497314 25.35896667 20.32287598 26.04696655 C22 30.77225659 22 30.77225659 22 33 C19.03 33 16.06 33 13 33 C12.34 31.68 11.68 30.36 11 29 C8.35212912 28.29626983 8.35212912 28.29626983 5.375 28.25 C4.37210937 28.19328125 3.36921875 28.1365625 2.3359375 28.078125 C1.17964844 28.03945312 1.17964844 28.03945312 0 28 C-0.33 29.65 -0.66 31.3 -1 33 C-3.97 33 -6.94 33 -10 33 C-8.52037974 25.59411122 -6.31186985 18.58019802 -3.875 11.4375 C-3.50246094 10.33341797 -3.12992187 9.22933594 -2.74609375 8.09179688 C-1.83485692 5.39313395 -0.91800356 2.6963686 0 0 Z M5 14 C4.34 16.31 3.68 18.62 3 21 C4.65 21 6.3 21 8 21 C7.65772428 18.02934491 7.65772428 18.02934491 7 15 C6.34 14.67 5.68 14.34 5 14 Z " fill="#17202a" transform="translate(367,217)"/>
<path d="M0 0 C3.3 0 6.6 0 10 0 C12.83723541 6.92988471 15.40051243 13.89103546 17.75 21 C18.06582031 21.93972656 18.38164062 22.87945312 18.70703125 23.84765625 C19.00480469 24.74355469 19.30257812 25.63945312 19.609375 26.5625 C20.0110791 27.77099609 20.0110791 27.77099609 20.42089844 29.00390625 C21 31 21 31 21 33 C17.7 33 14.4 33 11 33 C10.505 30.525 10.505 30.525 10 28 C6.37 28 2.74 28 -1 28 C-1.33 29.65 -1.66 31.3 -2 33 C-5.3 33 -8.6 33 -12 33 C-4.61702128 10.27659574 -4.61702128 10.27659574 0 0 Z M4 13 C3.34 15.64 2.68 18.28 2 21 C3.65 21 5.3 21 7 21 C6.34 18.36 5.68 15.72 5 13 C4.67 13 4.34 13 4 13 Z " fill="#F8F8FE" transform="translate(116,217)"/>
<path d="M0 0 C3.41328425 2.04797055 5.3497874 3.62233736 7.5859375 6.9765625 C7.5859375 7.9665625 7.5859375 8.9565625 7.5859375 9.9765625 C-0.11555504 11.26014459 -0.11555504 11.26014459 -4.4140625 8.9765625 C-7.21531277 8.62781247 -9.55762328 8.7462045 -12.4140625 8.9765625 C-14.88748516 12.68669649 -14.79909736 14.58716512 -14.4140625 18.9765625 C-13.53076607 21.51614484 -13.53076607 21.51614484 -11.4140625 22.9765625 C-7.87192265 23.47664044 -7.87192265 23.47664044 -4.4140625 22.9765625 C-3.7540625 22.3165625 -3.0940625 21.6565625 -2.4140625 20.9765625 C-0.03125 20.78125 -0.03125 20.78125 2.7109375 20.8515625 C3.62101562 20.86960938 4.53109375 20.88765625 5.46875 20.90625 C6.16742188 20.92945313 6.86609375 20.95265625 7.5859375 20.9765625 C7.37148827 24.72942404 6.6388033 25.92243799 3.9609375 28.6640625 C-0.44722307 31.99117417 -4.97470293 33.2707518 -10.4765625 32.8515625 C-15.43176062 32.03529924 -18.92332845 29.67291504 -22.2265625 25.9140625 C-25.09781613 21.22938553 -24.96530808 16.2921449 -24.4140625 10.9765625 C-23.07949413 6.2573358 -21.15141564 3.57848343 -17.3515625 0.4765625 C-11.92377581 -2.12085474 -5.53649571 -2.3471875 0 0 Z " fill="#F8F8FE" transform="translate(193.4140625,218.0234375)"/>
<path d="M0 0 C6.93 0 13.86 0 21 0 C21 2.31 21 4.62 21 7 C20 8 20 8 17.49609375 8.09765625 C15.98208984 8.08025391 15.98208984 8.08025391 14.4375 8.0625 C13.42558594 8.05347656 12.41367187 8.04445312 11.37109375 8.03515625 C10.19740234 8.01775391 10.19740234 8.01775391 9 8 C9 9.65 9 11.3 9 13 C9.71027344 12.98839844 10.42054688 12.97679687 11.15234375 12.96484375 C12.07144531 12.95582031 12.99054688 12.94679687 13.9375 12.9375 C14.85402344 12.92589844 15.77054687 12.91429687 16.71484375 12.90234375 C19 13 19 13 20 14 C20.04080783 15.99958364 20.04254356 18.00045254 20 20 C16.37 20 12.74 20 9 20 C9 21.98 9 23.96 9 26 C9.78246094 25.98839844 10.56492187 25.97679687 11.37109375 25.96484375 C12.38300781 25.95582031 13.39492188 25.94679687 14.4375 25.9375 C15.44683594 25.92589844 16.45617187 25.91429687 17.49609375 25.90234375 C20 26 20 26 21 27 C21 28.98 21 30.96 21 33 C14.07 33 7.14 33 0 33 C0 22.11 0 11.22 0 0 Z " fill="#17202a " transform="translate(411,217)"/>
<path d="M0 0 C8.58 0 17.16 0 26 0 C26 2.64 26 5.28 26 8 C23.36 8 20.72 8 18 8 C18 16.25 18 24.5 18 33 C14.7 33 11.4 33 8 33 C8 24.75 8 16.5 8 8 C5.36 8 2.72 8 0 8 C0 5.36 0 2.72 0 0 Z " fill="#17202a " transform="translate(202,217)"/>
<path d="M0 0 C2.64 0 5.28 0 8 0 C8 8.58 8 17.16 8 26 C11.3 26 14.6 26 18 26 C19 27 19 27 19 33 C12.73 33 6.46 33 0 33 C0 22.11 0 11.22 0 0 Z " fill="#17202a" transform="translate(391,217)"/>
<path d="M0 0 C2.97 0 5.94 0 9 0 C9 10.89 9 21.78 9 33 C5.7 33 2.4 33 -1 33 C-1.02465392 28.46102295 -1.04283789 23.92208457 -1.05493164 19.38305664 C-1.0599714 17.83780234 -1.0668032 16.29255284 -1.07543945 14.74731445 C-1.08752076 12.53074971 -1.09323173 10.31424782 -1.09765625 8.09765625 C-1.10281754 7.4028566 -1.10797882 6.70805695 -1.11329651 5.99220276 C-1.11349277 4.3277067 -1.06189129 2.66334501 -1 1 C-0.67 0.67 -0.34 0.34 0 0 Z " fill="#17202a " transform="translate(231,217)"/>
<path d="M0 0 C2.97 0 5.94 0 9 0 C12.42857143 9.57142857 12.42857143 9.57142857 12 14 C10.03698408 10.49461443 9.04097612 6.86648272 8 3 C5.03 2.505 5.03 2.505 2 2 C2.24234375 2.83772949 2.4846875 3.67545898 2.734375 4.53857422 C3.63102287 7.6427864 4.52530139 10.74766837 5.41796875 13.85302734 C5.80503783 15.19770272 6.19305416 16.54210579 6.58203125 17.88623047 C7.14050415 19.81666612 7.6953057 21.74816271 8.25 23.6796875 C8.58515625 24.84226074 8.9203125 26.00483398 9.265625 27.20263672 C10 30 10 30 10 32 C12.64 32 15.28 32 18 32 C18.16435547 31.07380859 18.16435547 31.07380859 18.33203125 30.12890625 C19.4377266 24.22287499 20.95361435 18.64802441 23 13 C23.66 13 24.32 13 25 13 C25.65077296 15.04009755 26.29539824 17.08215669 26.9375 19.125 C27.29714844 20.26195312 27.65679687 21.39890625 28.02734375 22.5703125 C28.91898339 25.71432699 29.53351014 28.76894393 30 32 C32.64 32 35.28 32 38 32 C38.10812012 31.4013916 38.21624023 30.8027832 38.32763672 30.18603516 C39.54025775 23.77540299 41.19630341 17.60404402 43.125 11.375 C43.40214844 10.46621094 43.67929687 9.55742187 43.96484375 8.62109375 C44.63897877 6.41272041 45.31739977 4.20576837 46 2 C43.69 2 41.38 2 39 2 C38.896875 3.216875 38.79375 4.43375 38.6875 5.6875 C38.01161197 11.90964572 36.49138037 17.93130125 35 24 C34.34 23.34 33.68 22.68 33 22 C33 20.68 33 19.36 33 18 C33.66 18 34.32 18 35 18 C35.04898438 17.3709375 35.09796875 16.741875 35.1484375 16.09375 C35.63435199 10.53086686 36.50553626 5.38006948 38 0 C41.3 0 44.6 0 48 0 C47.28711357 6.83182833 45.37397276 13.28222837 43.5 19.875 C43.17902344 21.02742188 42.85804688 22.17984375 42.52734375 23.3671875 C40.13127309 31.86872691 40.13127309 31.86872691 39 33 C37.31391034 33.07205511 35.62499341 33.08386068 33.9375 33.0625 C33.01839844 33.05347656 32.09929687 33.04445312 31.15234375 33.03515625 C30.44207031 33.02355469 29.73179687 33.01195312 29 33 C28.32586789 31.08594633 27.6609668 29.16863974 27 27.25 C26.62875 26.18265625 26.2575 25.1153125 25.875 24.015625 C25 21 25 21 25 17 C24.34 17 23.68 17 23 17 C22.896875 17.969375 22.79375 18.93875 22.6875 19.9375 C22.05095782 24.50562625 20.53528795 28.66114276 19 33 C15.7 33 12.4 33 9 33 C0 6.52427184 0 6.52427184 0 0 Z " class="dynamic-fill" transform="translate(310,217)"/>
<path d="M0 0 C1.47906892 -0.02689216 2.95827483 -0.04634621 4.4375 -0.0625 C5.26121094 -0.07410156 6.08492187 -0.08570313 6.93359375 -0.09765625 C9 0 9 0 10 1 C10.15764405 2.77869726 10.25100677 4.56318476 10.31640625 6.34765625 C10.37924805 7.96704102 10.37924805 7.96704102 10.44335938 9.61914062 C10.48267578 10.75544922 10.52199219 11.89175781 10.5625 13.0625 C10.60568359 14.20267578 10.64886719 15.34285156 10.69335938 16.51757812 C10.79982839 19.34492195 10.90184207 22.17235738 11 25 C13.97065509 24.65772428 13.97065509 24.65772428 17 24 C18.23060421 21.53879159 18.2057723 19.74223134 18.31640625 16.9921875 C18.35830078 16.00605469 18.40019531 15.01992187 18.44335938 14.00390625 C18.48267578 12.97136719 18.52199219 11.93882812 18.5625 10.875 C18.60568359 9.83472656 18.64886719 8.79445312 18.69335938 7.72265625 C18.7996288 5.14857472 18.90166583 2.57439492 19 0 C20.47906892 -0.02689216 21.95827483 -0.04634621 23.4375 -0.0625 C24.26121094 -0.07410156 25.08492187 -0.08570313 25.93359375 -0.09765625 C28 0 28 0 29 1 C29.28102796 4.1785965 29.23191624 7.37297679 29.25 10.5625 C29.270625 11.44486328 29.29125 12.32722656 29.3125 13.23632812 C29.34762858 19.17744875 28.67129258 23.65139842 26 29 C23.89160156 30.21704102 23.89160156 30.21704102 22 31 C22.64453125 29.906875 23.2890625 28.81375 23.953125 27.6875 C26.53294375 22.52786251 26.66372889 17.6860506 26.75 12 C26.77964844 11.03449219 26.80929688 10.06898438 26.83984375 9.07421875 C26.90988791 6.71606534 26.96290292 4.35886254 27 2 C25.02 2 23.04 2 21 2 C21.02320313 3.24136719 21.04640625 4.48273438 21.0703125 5.76171875 C21.08907731 7.4036398 21.10727675 9.04556738 21.125 10.6875 C21.14175781 11.50412109 21.15851563 12.32074219 21.17578125 13.16210938 C21.21123829 17.54105333 21.15547121 21.05835159 19 25 C18.34 25.66 17.68 26.32 17 27 C13.5 26.8125 13.5 26.8125 10 26 C7.83073341 22.74610012 7.75919951 21.86604043 7.8046875 18.11328125 C7.81435547 16.7065918 7.81435547 16.7065918 7.82421875 15.27148438 C7.84097656 14.29501953 7.85773438 13.31855469 7.875 12.3125 C7.88402344 11.32443359 7.89304688 10.33636719 7.90234375 9.31835938 C7.9259157 6.87866235 7.95881978 4.43945303 8 2 C6.02 2 4.04 2 2 2 C2.1102391 5.72975606 2.24078413 9.45853583 2.375 13.1875 C2.4059375 14.24259766 2.436875 15.29769531 2.46875 16.38476562 C2.50742188 17.40634766 2.54609375 18.42792969 2.5859375 19.48046875 C2.6173584 20.41785889 2.6487793 21.35524902 2.68115234 22.32104492 C3.02022831 25.16995808 3.82257457 27.39520444 5 30 C1.125 27.375 1.125 27.375 0 24 C-0.08239169 22.15389468 -0.10743359 20.30494836 -0.09765625 18.45703125 C-0.09443359 17.38388672 -0.09121094 16.31074219 -0.08789062 15.20507812 C-0.07951172 14.08552734 -0.07113281 12.96597656 -0.0625 11.8125 C-0.05798828 10.68134766 -0.05347656 9.55019531 -0.04882812 8.38476562 C-0.03703498 5.58979073 -0.0205765 2.7949218 0 0 Z " class="dynamic-fill" transform="translate(138,217)"/>
<path d="M0 0 C9 0 9 0 11.03149414 1.56054688 C11.44520264 2.27275391 11.85891113 2.98496094 12.28515625 3.71875 C12.75244141 4.48574219 13.21972656 5.25273437 13.70117188 6.04296875 C14.15041016 6.85378906 14.59964844 7.66460937 15.0625 8.5 C15.54654297 9.31082031 16.03058594 10.12164062 16.52929688 10.95703125 C17.7157759 12.95407515 18.86197466 14.97495305 20 17 C20.33 11.39 20.66 5.78 21 0 C23.64 0 26.28 0 29 0 C29 10.89 29 21.78 29 33 C26.03 33 23.06 33 20 33 C17.57106573 30.40088562 16.12788575 28.51176274 14.4375 25.5 C14.00115234 24.78457031 13.56480469 24.06914062 13.11523438 23.33203125 C12.0475521 21.57211542 11.01967598 19.78815829 10 18 C9.67 22.95 9.34 27.9 9 33 C6.03 33 3.06 33 0 33 C0 22.11 0 11.22 0 0 Z M1 2 C1 11.9 1 21.8 1 32 C2.98 32 4.96 32 7 32 C7.495 23.09 7.495 23.09 8 14 C12.47002854 18.47002854 12.47002854 18.47002854 14.11328125 21.453125 C14.47486328 22.071875 14.83644531 22.690625 15.20898438 23.328125 C15.948557 24.61615946 16.67245347 25.91331463 17.38085938 27.21875 C18.58175792 29.35633316 18.58175792 29.35633316 21 32 C23.31 32 25.62 32 28 32 C28 22.1 28 12.2 28 2 C26.02 2 24.04 2 22 2 C22 8.27 22 14.54 22 21 C17.53219156 16.53219156 17.53219156 16.53219156 15.66796875 13.328125 C15.26126953 12.66425781 14.85457031 12.00039062 14.43554688 11.31640625 C13.5996807 9.93245255 12.77941068 8.53896515 11.97460938 7.13671875 C11.56404297 6.47800781 11.15347656 5.81929687 10.73046875 5.140625 C10.37364014 4.53766602 10.01681152 3.93470703 9.64916992 3.31347656 C7.43879233 1.27316788 7.43879233 1.27316788 1 2 Z " class="dynamic-fill" transform="translate(279,217)"/>
<path d="M0 0 C6.93 0 13.86 0 21 0 C21 2.31 21 4.62 21 7 C20 8 20 8 17.49609375 8.09765625 C15.98208984 8.08025391 15.98208984 8.08025391 14.4375 8.0625 C13.42558594 8.05347656 12.41367187 8.04445312 11.37109375 8.03515625 C10.19740234 8.01775391 10.19740234 8.01775391 9 8 C9 9.65 9 11.3 9 13 C9.71027344 12.98839844 10.42054688 12.97679687 11.15234375 12.96484375 C12.07144531 12.95582031 12.99054688 12.94679687 13.9375 12.9375 C14.85402344 12.92589844 15.77054687 12.91429687 16.71484375 12.90234375 C19 13 19 13 20 14 C20.04080783 15.99958364 20.04254356 18.00045254 20 20 C16.37 20 12.74 20 9 20 C9 21.98 9 23.96 9 26 C9.78246094 25.98839844 10.56492187 25.97679687 11.37109375 25.96484375 C12.38300781 25.95582031 13.39492188 25.94679687 14.4375 25.9375 C15.44683594 25.92589844 16.45617187 25.91429687 17.49609375 25.90234375 C20 26 20 26 21 27 C21 28.98 21 30.96 21 33 C14.07 33 7.14 33 0 33 C0 22.11 0 11.22 0 0 Z M2 2 C2 11.9 2 21.8 2 32 C7.94 32 13.88 32 20 32 C20 30.68 20 29.36 20 28 C16.37 27.67 12.74 27.34 9 27 C8.67 24.36 8.34 21.72 8 19 C11.3 19 14.6 19 18 19 C18 17.35 18 15.7 18 14 C14.7 14 11.4 14 8 14 C8 11.36 8 8.72 8 6 C11.96 6 15.92 6 20 6 C20 4.68 20 3.36 20 2 C14.06 2 8.12 2 2 2 Z " class="dynamic-fill" transform="translate(411,217)"/>
<path d="M0 0 C8.58 0 17.16 0 26 0 C26 2.64 26 5.28 26 8 C23.36 8 20.72 8 18 8 C18 16.25 18 24.5 18 33 C14.7 33 11.4 33 8 33 C8 24.75 8 16.5 8 8 C5.36 8 2.72 8 0 8 C0 5.36 0 2.72 0 0 Z M2 2 C2 3.32 2 4.64 2 6 C4.64 6 7.28 6 10 6 C10 14.58 10 23.16 10 32 C11.98 32 13.96 32 16 32 C16.33 23.75 16.66 15.5 17 7 C19.64 6.67 22.28 6.34 25 6 C25 4.68 25 3.36 25 2 C17.41 2 9.82 2 2 2 Z " class="dynamic-fill" transform="translate(202,217)"/>
<path d="M0 0 C2.97 0 5.94 0 9 0 C9 10.89 9 21.78 9 33 C5.7 33 2.4 33 -1 33 C-1.02465392 28.46102295 -1.04283789 23.92208457 -1.05493164 19.38305664 C-1.0599714 17.83780234 -1.0668032 16.29255284 -1.07543945 14.74731445 C-1.08752076 12.53074971 -1.09323173 10.31424782 -1.09765625 8.09765625 C-1.10281754 7.4028566 -1.10797882 6.70805695 -1.11329651 5.99220276 C-1.11349277 4.3277067 -1.06189129 2.66334501 -1 1 C-0.67 0.67 -0.34 0.34 0 0 Z M1 2 C1 11.9 1 21.8 1 32 C2.98 32 4.96 32 7 32 C7 22.1 7 12.2 7 2 C5.02 2 3.04 2 1 2 Z " class="dynamic-fill" transform="translate(231,217)"/>
<path d="M0 0 C2.64 0 5.28 0 8 0 C8 0.66 8 1.32 8 2 C5.69 2 3.38 2 1 2 C1 11.9 1 21.8 1 32 C6.28 32 11.56 32 17 32 C17 30.68 17 29.36 17 28 C14.03 28 11.06 28 8 28 C8 27.34 8 26.68 8 26 C9.64574566 25.97311849 11.29161413 25.95365877 12.9375 25.9375 C13.85402344 25.92589844 14.77054687 25.91429687 15.71484375 25.90234375 C18 26 18 26 19 27 C19 28.98 19 30.96 19 33 C12.73 33 6.46 33 0 33 C0 22.11 0 11.22 0 0 Z " fill="#EFF2FA" transform="translate(391,217)"/>
<path d="M0 0 C0.33 0.66 0.66 1.32 1 2 C0.30132812 1.96519531 -0.39734375 1.93039063 -1.1171875 1.89453125 C-2.02726563 1.86746094 -2.93734375 1.84039062 -3.875 1.8125 C-4.77992188 1.77769531 -5.68484375 1.74289063 -6.6171875 1.70703125 C-7.40351563 1.80371094 -8.18984375 1.90039062 -9 2 C-11.47342266 5.71013399 -11.38503486 7.61060262 -11 12 C-10.11670357 14.53958234 -10.11670357 14.53958234 -8 16 C-4.45786015 16.50007794 -4.45786015 16.50007794 -1 16 C-0.34 15.34 0.32 14.68 1 14 C3.3828125 13.8046875 3.3828125 13.8046875 6.125 13.875 C7.03507812 13.89304688 7.94515625 13.91109375 8.8828125 13.9296875 C9.58148438 13.95289063 10.28015625 13.97609375 11 14 C10.5206753 18.31392226 9.2542015 20.16569547 6 23 C5.34 22.67 4.68 22.34 4 22 C4.639375 21.21625 5.27875 20.4325 5.9375 19.625 C7.98142313 17.20460719 7.98142313 17.20460719 9 15 C4.13828325 15.34069769 4.13828325 15.34069769 0 17.625 C-2 19 -2 19 -5.5 18.9375 C-9.26364588 17.92938057 -10.62413219 17.01552452 -13 14 C-14.43304064 11.13391871 -14.30644155 9.18699217 -14 6 C-10.24553276 -0.86161255 -7.53283969 -1.53446734 0 0 Z " class="dynamic-fill" transform="translate(190,225)"/>
<path d="M0 0 C5.00230198 2.45567552 8.49851535 5.9970307 11 11 C12.03134153 22.29403507 12.03134153 22.29403507 9 26.75 C8.01 27.86375 8.01 27.86375 7 29 C6.34 28.67 5.68 28.34 5 28 C5.474375 27.34 5.94875 26.68 6.4375 26 C9.12209462 20.84557832 9.66585327 16.24186808 7.9375 10.75 C6.17381622 6.70623855 4.03811283 4.9047702 0 3 C-5.92063428 1.26713143 -9.59843859 2.24626281 -15 5 C-15.99 5.33 -16.98 5.66 -18 6 C-18 5.34 -18 4.68 -18 4 C-12.13116703 -0.17339234 -7.15427535 -1.06989918 0 0 Z " class="dynamic-fill" transform="translate(265,217)"/>
<path d="M0 0 C3.41328425 2.04797055 5.3497874 3.62233736 7.5859375 6.9765625 C7.2559375 7.9665625 6.9259375 8.9565625 6.5859375 9.9765625 C6.22242188 9.49445313 5.85890625 9.01234375 5.484375 8.515625 C2.23577972 4.43405657 -0.04383642 1.8189509 -5.4140625 0.9765625 C-12.73622939 0.64931482 -17.04016329 3.18837438 -22.4140625 7.9765625 C-21.50057782 4.32262378 -20.47642421 3.02565576 -17.4765625 0.6640625 C-12.01388107 -2.11280056 -5.64798515 -2.39445325 0 0 Z " class="dynamic-fill" transform="translate(193.4140625,218.0234375)"/>
<path d="M0 0 C3.3 0 6.6 0 10 0 C16.18556701 15.25773196 16.18556701 15.25773196 15 20 C13.02 14.39 11.04 8.78 9 3 C6.03 2.67 3.06 2.34 0 2 C-0.33 2.66 -0.66 3.32 -1 4 C-0.67 2.68 -0.34 1.36 0 0 Z " class="dynamic-fill" transform="translate(116,217)"/>
<path d="M0 0 C0.66 0 1.32 0 2 0 C2.50559908 1.43554025 3.0042749 2.8735202 3.5 4.3125 C3.7784375 5.11300781 4.056875 5.91351563 4.34375 6.73828125 C5 9 5 9 5 12 C2.03 12 -0.94 12 -4 12 C-3.52494322 10.18641846 -3.04483958 8.37415821 -2.5625 6.5625 C-2.29566406 5.55316406 -2.02882813 4.54382813 -1.75390625 3.50390625 C-1 1 -1 1 0 0 Z M0 4 C-0.66 6.31 -1.32 8.62 -2 11 C-0.35 11 1.3 11 3 11 C2.65772428 8.02934491 2.65772428 8.02934491 2 5 C1.34 4.67 0.68 4.34 0 4 Z " class="dynamic-fill" transform="translate(372,227)"/>
<path d="M0 0 C0.66 0 1.32 0 2 0 C2.53394179 1.4117783 3.05165104 2.82970244 3.5625 4.25 C3.85253906 5.03890625 4.14257812 5.8278125 4.44140625 6.640625 C5.04522837 9.19103452 4.8473932 10.55322229 4 13 C1.6568787 12.74438677 -0.67843403 12.40729228 -3 12 C-4 10 -4 10 -3.22265625 7.6171875 C-2.83980469 6.71226562 -2.45695312 5.80734375 -2.0625 4.875 C-1.68222656 3.96492187 -1.30195312 3.05484375 -0.91015625 2.1171875 C-0.60980469 1.41851562 -0.30945313 0.71984375 0 0 Z M0 3 C-0.66 5.64 -1.32 8.28 -2 11 C-0.35 11 1.3 11 3 11 C2.34 8.36 1.68 5.72 1 3 C0.67 3 0.34 3 0 3 Z " fill="#EAEAEA" transform="translate(120,227)"/>
<path d="M0 0 C13.73397062 9.73863371 13.73397062 9.73863371 17 17 C14.10147635 15.68692628 12.01722783 14.27315362 9.765625 12.03125 C8.90517578 11.17466797 8.90517578 11.17466797 8.02734375 10.30078125 C7.44082031 9.70652344 6.85429687 9.11226562 6.25 8.5 C5.64800781 7.90574219 5.04601562 7.31148437 4.42578125 6.69921875 C3.85730469 6.12816406 3.28882813 5.55710938 2.703125 4.96875 C2.18395508 4.44732422 1.66478516 3.92589844 1.12988281 3.38867188 C0 2 0 2 0 0 Z " class="dynamic-fill" transform="translate(135,171)"/>
<path d="M0 0 C3.00380655 1.50190327 4.1970836 4.12099748 5.875 6.9375 C3.20833333 5.60416667 0.54166667 4.27083333 -2.125 2.9375 C-4.105 4.9175 -6.085 6.8975 -8.125 8.9375 C-8.785 8.6075 -9.445 8.2775 -10.125 7.9375 C-8.89100937 6.56872884 -7.63719377 5.21780834 -6.375 3.875 C-5.67890625 3.12089844 -4.9828125 2.36679688 -4.265625 1.58984375 C-2.125 -0.0625 -2.125 -0.0625 0 0 Z " class="dynamic-fill" transform="translate(127.125,162.0625)"/>
</svg>   !-->

<!--
<svg xmlns="http://www.w3.org/2000/svg" version="1.1" viewBox="80.16 162.04 351.84 115.12">
    <path d="M0 0 C2.76266564 1.21856185 4.17959652 3.14658155 6.11053467 5.44564819 C8.84687906 8.60091176 11.52387284 11.52587169 14.73553467 14.19564819 C18.78720859 17.60163703 22.25439799 21.47078431 25.77825928 25.4024353 C29.04495709 29.01581705 32.47209512 32.22840828 36.20037842 35.35189819 C38.38924265 37.28839926 40.14509611 39.46192017 41.86053467 41.82064819 C40.87053467 43.14064819 39.88053467 44.46064819 38.86053467 45.82064819 C35.07873775 44.53321066 32.85763269 43.14774289 30.18865967 40.18783569 C29.5285791 39.46781372 28.86849854 38.74779175 28.18841553 38.00595093 C27.50271484 37.24355103 26.81701416 36.48115112 26.11053467 35.69564819 C21.19883997 30.34305332 16.30605384 25.22389723 10.75115967 20.52767944 C8.0394552 18.07930164 5.75690325 15.32429518 3.46600342 12.48471069 C1.72377883 10.67890127 0.11169037 9.88243221 -2.13946533 8.82064819 C-15.87806513 18.06576775 -32.72245334 29.89314754 -37.15698242 46.67019653 C-40.87987346 66.65879774 -38.20397831 87.92244399 -37.13946533 107.82064819 C-11.06946533 107.82064819 15.00053467 107.82064819 41.86053467 107.82064819 C42.19053467 109.47064819 42.52053467 111.12064819 42.86053467 112.82064819 C38.52141543 114.97208111 34.59616406 115.06191018 29.85736084 114.9559021 C29.06659149 114.94644058 28.27582214 114.93697906 27.46109009 114.92723083 C24.85832018 114.89366636 22.25603788 114.84552062 19.65350342 114.79721069 C17.84462238 114.77103187 16.03572792 114.7457658 14.2268219 114.72137451 C9.47393768 114.65483819 4.72133691 114.5759206 -0.03131104 114.49441528 C-4.88430939 114.41338323 -9.73747362 114.34407286 -14.59063721 114.27377319 C-24.10711207 114.13419736 -33.62332865 113.98153971 -43.13946533 113.82064819 C-43.16379387 112.56765678 -43.16379387 112.56765678 -43.18861389 111.28935242 C-43.27128105 107.37887501 -43.36709899 103.46887555 -43.47149658 99.55892944 C-43.48994944 98.84984247 -43.50840229 98.1407555 -43.52741432 97.41018105 C-43.76141443 88.93571444 -44.27558363 80.66956189 -45.71368408 72.30111694 C-47.66678991 59.08492263 -48.39447414 47.08952988 -40.07745361 35.87680054 C-34.9153086 29.57847595 -29.28241772 23.80855759 -23.38946533 18.19564819 C-22.89544094 17.72441402 -22.40141655 17.25317986 -21.89242172 16.76766586 C-16.87208115 12.00812952 -11.73297142 7.37757257 -6.44903564 2.91195679 C-5.7117926 2.28727509 -4.97454956 1.66259338 -4.21496582 1.01898193 C-2.13946533 -0.17935181 -2.13946533 -0.17935181 0 0 Z " fill="#000000" transform="translate(127.13946533203125,162.17935180664063)"/>
    <path d="M0 0 C2.97 0 5.94 0 9 0 C11.23816593 6.30755854 12.7944003 12.41557086 14 19 C16.475 9.595 16.475 9.595 19 0 C22.3 0 25.6 0 29 0 C31.00993705 4.01987409 31.55305762 6.83787308 32.125 11.25 C32.37636719 13.14492187 32.37636719 13.14492187 32.6328125 15.078125 C32.75398438 16.04234375 32.87515625 17.0065625 33 18 C33.66 18 34.32 18 35 18 C35.04898438 17.3709375 35.09796875 16.741875 35.1484375 16.09375 C35.63435199 10.53086686 36.50553626 5.38006948 38 0 C41.3 0 44.6 0 48 0 C47.28711357 6.83182833 45.37397276 13.28222837 43.5 19.875 C43.17902344 21.02742188 42.85804688 22.17984375 42.52734375 23.3671875 C40.13127309 31.86872691 40.13127309 31.86872691 39 33 C37.31391034 33.07205511 35.62499341 33.08386068 33.9375 33.0625 C33.01839844 33.05347656 32.09929687 33.04445312 31.15234375 33.03515625 C30.44207031 33.02355469 29.73179687 33.01195312 29 33 C28.32586789 31.08594633 27.6609668 29.16863974 27 27.25 C26.62875 26.18265625 26.2575 25.1153125 25.875 24.015625 C25 21 25 21 25 17 C24.34 17 23.68 17 23 17 C22.896875 17.969375 22.79375 18.93875 22.6875 19.9375 C22.05095782 24.50562625 20.53528795 28.66114276 19 33 C15.7 33 12.4 33 9 33 C0 6.52427184 0 6.52427184 0 0 Z " fill="#000000" transform="translate(310,217)"/>
    <path d="M0 0 C9 0 9 0 11.03149414 1.56054688 C11.44520264 2.27275391 11.85891113 2.98496094 12.28515625 3.71875 C12.75244141 4.48574219 13.21972656 5.252"/>
    </svg> !-->

<!--
<svg version="1.0" xmlns="http://www.w3.org/2000/svg"
 width="10.000000pt" height="10.000000pt" viewBox="80.16 162.04 351.84 115.12"
 preserveAspectRatio="xMidYMid meet">

<g transform="translate(1.13946533203125,1.17935180664063) scale(1,1)"
fill="#000000" stroke="none">
<path d="M0 5120 l0 -5120 5120 0 5120 0 0 5120 0 5120 -5120 0 -5120 0 0-5120z m5406 2822 c88 -70 252 -199 365 -287 112 -88 271 -216 354 -286 82-69 220 -178 305 -242 216 -162 339 -257 455 -352 160 -130 312 -244 375 -281111 -66 114 -93 19 -144 -33 -18 -83 -52 -111 -77 -50 -44 -50 -44 -76 -27-58 37 -275 204 -422 323 -285 232 -402 326 -454 365 -28 22 -103 81 -166 131-63 50 -173 136 -245 190 -71 54 -157 122 -190 150 -33 29 -94 77 -136 107-41 31 -114 88 -161 126 -72 59 -89 68 -98 57 -13 -16 -383 -304 -661 -515-47 -36 -197 -153 -334 -260 -137 -107 -281 -220 -320 -250 -40 -30 -107 -83-151 -117 -282 -223 -401 -313 -413 -313 -7 0 -30 15 -50 33 -21 17 -72 56-115 85 -52 36 -76 58 -74 70 2 9 51 50 110 92 58 41 186 136 283 210 97 74252 192 343 262 92 71 228 174 302 230 74 56 187 145 251 197 64 53 174 139245 191 71 52 210 159 309 239 172 139 282 221 294 221 3 0 78 -58 167 -128zm1188 -185 c31 -23 37 -83 30 -329 -4 -131 -8 -238 -9 -238 -1 0 -24 12 -5127 -78 42 -214 153 -225 181 -6 15 -13 97 -16 182 -8 198 -14 190 141 190 750 118 -4 130 -13z m-1330 -316 c27 -28 124 -239 195 -426 21 -55 51 -127 66-160 45 -101 233 -540 310 -725 40 -96 113 -265 163 -375 83 -184 112 -260112 -292 0 -10 -38 -13 -158 -13 l-159 0 -60 143 c-34 78 -64 157 -68 175 -942 -48 138 -91 223 -44 88 -142 318 -188 444 -21 55 -63 151 -94 213 -64 126-59 125 -112 22 -34 -68 -204 -482 -218 -532 l-10 -37 40 -6 c21 -4 124 -5227 -3 145 2 191 0 204 -10 20 -17 120 -269 112 -283 -4 -6 -136 -9 -353 -9l-347 1 -39 -93 c-21 -51 -52 -128 -70 -171 l-31 -79 -178 -3 c-97 -3 -177 -2-177 1 0 2 14 33 31 67 37 72 206 463 254 587 19 47 55 135 80 195 26 61 64151 85 200 21 50 56 133 80 185 57 128 108 252 190 459 78 195 148 331 169331 4 0 20 -13 35 -29z m1133 -883 c22 -18 84 -71 137 -117 l96 -84 -2 -451-3 -451 -135 -5 c-74 -3 -137 -4 -140 -2 -9 7 -11 1142 -2 1142 5 0 27 -15 49-32z m-2292 -450 c-2 -260 -4 -516 -4 -568 l-1 -95 -143 1 -142 1 -5 458 -5457 45 31 c25 17 71 55 104 84 62 57 123 101 142 102 8 1 11 -126 9 -471zm3470 -263 c35 -34 34 -93 -1 -134 -21 -26 -33 -31 -69 -31 -55 0 -85 33 -8592 0 84 99 130 155 73z m-278 -19 c27 -31 29 -56 8 -95 -29 -57 -115 -65 -155-14 -28 36 -27 96 3 123 32 31 112 23 144 -14z m408 -565 c127 -6 273 -18 325-26 126 -20 399 -35 638 -35 166 0 193 -2 199 -16 14 -37 -7 -39 -430 -44-361 -4 -415 -7 -435 -21 -18 -13 -20 -19 -11 -25 30 -18 -63 -25 -431 -35-505 -12 -4211 -12 -4408 1 -105 7 -164 15 -198 28 -78 31 -274 43 -779 47-259 2 -478 7 -488 10 -20 8 -18 25 4 36 8 4 172 12 364 19 427 14 585 23 73545 63 9 234 20 380 24 395 13 4255 6 4535 -8z m-5738 -648 c86 -265 164 -512200 -638 18 -66 36 -128 39 -138 5 -16 -2 -18 -78 -15 l-83 3 -26 95 -26 95-152 3 c-139 2 -151 1 -151 -15 0 -10 -12 -55 -27 -100 l-27 -83 -73 0 c-52 0-73 4 -73 13 0 29 151 533 237 795 l48 142 70 0 71 0 51 -157z m447 108 c3-24 6 -182 6 -350 0 -282 2 -308 19 -337 53 -87 209 -83 253 6 16 31 18 72 18383 l0 347 74 0 74 0 7 -92 c4 -51 5 -221 3 -378 -3 -270 -4 -287 -25 -325-32 -60 -101 -119 -163 -140 -156 -52 -318 6 -383 136 l-28 56 -6 372 -6 37375 -4 76 -3 6 -44z m990 38 c26 -7 59 -31 97 -68 59 -59 70 -84 84 -183 l7-46 -75 -4 -75 -3 -6 45 c-11 80 -57 120 -141 120 -37 0 -51 -6 -80 -32 -49-45 -58 -105 -53 -343 3 -165 6 -194 22 -218 25 -38 66 -57 118 -57 82 1 12850 128 137 0 52 0 52 26 43 14 -6 52 -10 84 -10 l58 0 -5 -42 c-14 -126 -63-199 -168 -249 -138 -67 -314 -15 -390 114 -33 58 -45 144 -45 338 0 239 18316 92 386 55 53 132 83 213 83 39 0 88 -5 109 -11z m858 -64 l3 -75 -117 0-118 0 -2 -397 -3 -398 -75 0 -75 0 -5 395 -5 395 -107 3 -108 3 0 69 0 69 384 c20 2 157 4 304 5 l266 2 4 -75z m253 -345 c0 -228 -4 -441 -8 -472 l-8 -58-77 0 -77 0 3 467 c3 338 7 470 15 476 7 4 44 6 82 5 l70 -3 0 -415z m559 403c60 -22 127 -80 163 -140 25 -43 27 -57 35 -222 11 -229 -1 -365 -36 -425 -61-105 -201 -167 -323 -145 -112 21 -197 83 -240 177 -25 52 -25 55 -21 300 l3247 33 68 c36 73 74 108 149 137 63 25 172 26 237 3z m587 -174 c52 -97 119-226 149 -287 30 -61 58 -111 63 -111 6 -1 12 258 12 497 l-1 82 62 0 c34 069 3 78 6 14 6 16 -40 16 -470 l0 -477 -67 3 -68 3 -38 70 c-98 176 -159 289-216 400 -35 66 -67 124 -72 130 -5 5 -9 -110 -9 -298 l0 -307 -79 0 -78 0 -731 c-8 41 -8 430 1 697 l6 211 71 3 c39 2 74 1 77 -2 4 -3 49 -84 100 -181zm616 81 c40 -173 93 -420 107 -495 8 -38 16 -63 19 -55 4 13 139 575 153 6384 21 9 23 56 20 l51 -3 33 -146 c17 -81 43 -184 57 -230 14 -46 35 -128 46-183 11 -54 22 -100 25 -103 6 -6 8 2 36 176 12 74 40 200 61 280 22 80 43160 47 176 8 30 8 30 85 33 l78 3 -7 -38 c-4 -21 -22 -94 -41 -163 -18 -69-56 -228 -84 -355 -27 -126 -59 -265 -71 -307 l-20 -78 -79 0 c-69 0 -79 2-79 18 0 18 -60 263 -109 447 -16 61 -32 103 -34 95 -3 -8 -22 -85 -42 -170-62 -264 -87 -364 -95 -380 -6 -12 -23 -14 -81 -10 l-73 5 -18 70 c-39 149-115 480 -168 730 -11 50 -22 100 -26 113 -6 23 -6 23 71 20 l78 -3 24 -105zm1273 -5 c21 -60 51 -157 68 -215 17 -58 63 -206 102 -330 40 -124 74 -240 77-257 l5 -33 -80 0 -80 0 -24 98 -24 97 -158 0 -158 0 -18 -70 c-32 -126 -31-125 -122 -125 -43 0 -78 2 -78 4 0 3 11 40 24 83 14 43 34 114 46 158 25 88115 367 186 573 l47 133 75 -3 75 -3 37 -110z m483 -142 c1 -142 2 -320 1-395 l-1 -138 174 0 173 0 0 -74 0 -74 -247 -4 c-137 -2 -249 -4 -250 -3 -2 1-5 897 -3 938 0 4 34 7 75 7 l75 0 3 -257z m977 177 l0 -81 -197 7 -198 7 -3-127 -2 -126 122 -1 c68 -1 138 -2 156 -1 l32 0 0 -74 0 -74 -154 0 -154 0 3-102 c1 -57 3 -111 4 -120 1 -17 17 -18 196 -18 l196 0 -3 -77 -3 -77 -270 1-270 1 -9 218 c-4 119 -5 330 -1 468 l7 252 274 2 274 3 0 -81z m-3727 -1151c41 -21 67 -52 67 -80 0 -38 -44 -86 -92 -101 -34 -10 -44 -9 -71 5 -18 10-43 34 -57 53 l-24 36 19 36 c11 20 31 42 45 49 31 16 84 17 113 2z m-236 -74c66 -10 52 -22 -34 -31 -85 -8 -3353 3 -3361 11 -3 3 -2 8 2 13 15 15 3293 223393 7z m3831 0 c36 -12 0 -23 -95 -29 -152 -8 -3223 -9 -3306 0 -57 6 -88 17-75 26 14 11 3443 13 3476 3z"/>
<path d="M1839 4528 c0 -2 -6 -28 -13 -58 -7 -30 -31 -112 -53 -182 l-40 -127113 -3 c110 -3 114 -2 107 17 -3 11 -18 63 -33 115 -61 209 -76 253 -81 238z"/>
<path d="M4859 4581 l-39 -39 0 -238 c0 -222 2 -241 20 -272 52 -84 187 -80248 8 21 32 22 41 22 254 0 190 -2 226 -18 256 -22 45 -72 70 -141 70 -49 0-57 -3 -92 -39z"/>
<path d="M7411 4469 c-12 -35 -40 -119 -61 -186 l-38 -123 82 0 c44 0 99 -3120 -7 35 -5 39 -4 33 13 -3 10 -27 91 -52 179 -26 88 -50 166 -55 174 -5 9-15 -8 -29 -50z"/>
</g>
</svg>!-->



<svg xmlns="http://www.w3.org/2000/svg" viewBox="80.16 162.04 351.84 115.12">
  <style>
    .dynamic-fill {
      fill: black;
    }
    @media (prefers-color-scheme: dark) {
      .dynamic-fill {
        fill: white;
      }
    }
  </style>
<path d="M0 0 C2.76266564 1.21856185 4.17959652 3.14658155 6.11053467 5.44564819 C8.84687906 8.60091176 11.52387284 11.52587169 14.73553467 14.19564819 C18.78720859 17.60163703 22.25439799 21.47078431 25.77825928 25.4024353 C29.04495709 29.01581705 32.47209512 32.22840828 36.20037842 35.35189819 C38.38924265 37.28839926 40.14509611 39.46192017 41.86053467 41.82064819 C40.87053467 43.14064819 39.88053467 44.46064819 38.86053467 45.82064819 C35.07873775 44.53321066 32.85763269 43.14774289 30.18865967 40.18783569 C29.5285791 39.46781372 28.86849854 38.74779175 28.18841553 38.00595093 C27.50271484 37.24355103 26.81701416 36.48115112 26.11053467 35.69564819 C21.19883997 30.34305332 16.30605384 25.22389723 10.75115967 20.52767944 C8.0394552 18.07930164 5.75690325 15.32429518 3.46600342 12.48471069 C1.72377883 10.67890127 0.11169037 9.88243221 -2.13946533 8.82064819 C-15.87806513 18.06576775 -32.72245334 29.89314754 -37.15698242 46.67019653 C-40.87987346 66.65879774 -38.20397831 87.92244399 -37.13946533 107.82064819 C-11.06946533 107.82064819 15.00053467 107.82064819 41.86053467 107.82064819 C42.19053467 109.47064819 42.52053467 111.12064819 42.86053467 112.82064819 C38.52141543 114.97208111 34.59616406 115.06191018 29.85736084 114.9559021 C29.06659149 114.94644058 28.27582214 114.93697906 27.46109009 114.92723083 C24.85832018 114.89366636 22.25603788 114.84552062 19.65350342 114.79721069 C17.84462238 114.77103187 16.03572792 114.7457658 14.2268219 114.72137451 C9.47393768 114.65483819 4.72133691 114.5759206 -0.03131104 114.49441528 C-4.88430939 114.41338323 -9.73747362 114.34407286 -14.59063721 114.27377319 C-24.10711207 114.13419736 -33.62332865 113.98153971 -43.13946533 113.82064819 C-43.16379387 112.56765678 -43.16379387 112.56765678 -43.18861389 111.28935242 C-43.27128105 107.37887501 -43.36709899 103.46887555 -43.47149658 99.55892944 C-43.48994944 98.84984247 -43.50840229 98.1407555 -43.52741432 97.41018105 C-43.76141443 88.93571444 -44.27558363 80.66956189 -45.71368408 72.30111694 C-47.66678991 59.08492263 -48.39447414 47.08952988 -40.07745361 35.87680054 C-34.9153086 29.57847595 -29.28241772 23.80855759 -23.38946533 18.19564819 C-22.89544094 17.72441402 -22.40141655 17.25317986 -21.89242172 16.76766586 C-16.87208115 12.00812952 -11.73297142 7.37757257 -6.44903564 2.91195679 C-5.7117926 2.28727509 -4.97454956 1.66259338 -4.21496582 1.01898193 C-2.13946533 -0.17935181 -2.13946533 -0.17935181 0 0 Z" class="dynamic-fill" transform="translate(127.13946533203125,162.17935180664063)"/>
<path d="M0 0 C2.76266564 1.21856185 4.17959652 3.14658155 6.11053467 5.44564819 C8.84687906 8.60091176 11.52387284 11.52587169 14.73553467 14.19564819 C18.78720859 17.60163703 22.25439799 21.47078431 25.77825928 25.4024353 C29.04495709 29.01581705 32.47209512 32.22840828 36.20037842 35.35189819 C38.38924265 37.28839926 40.14509611 39.46192017 41.86053467 41.82064819 C40.87053467 43.14064819 39.88053467 44.46064819 38.86053467 45.82064819 C35.07873775 44.53321066 32.85763269 43.14774289 30.18865967 40.18783569 C29.5285791 39.46781372 28.86849854 38.74779175 28.18841553 38.00595093 C27.50271484 37.24355103 26.81701416 36.48115112 26.11053467 35.69564819 C21.19883997 30.34305332 16.30605384 25.22389723 10.75115967 20.52767944 C8.0394552 18.07930164 5.75690325 15.32429518 3.46600342 12.48471069 C1.72377883 10.67890127 0.11169037 9.88243221 -2.13946533 8.82064819 C-15.87806513 18.06576775 -32.72245334 29.89314754 -37.15698242 46.67019653 C-40.87987346 66.65879774 -38.20397831 87.92244399 -37.13946533 107.82064819 C-11.06946533 107.82064819 15.00053467 107.82064819 41.86053467 107.82064819 C42.19053467 109.47064819 42.52053467 111.12064819 42.86053467 112.82064819 C38.52141543 114.97208111 34.59616406 115.06191018 29.85736084 114.9559021 C29.06659149 114.94644058 28.27582214 114.93697906 27.46109009 114.92723083 C24.85832018 114.89366636 22.25603788 114.84552062 19.65350342 114.79721069 C17.84462238 114.77103187 16.03572792 114.7457658 14.2268219 114.72137451 C9.47393768 114.65483819 4.72133691 114.5759206 -0.03131104 114.49441528 C-4.88430939 114.41338323 -9.73747362 114.34407286 -14.59063721 114.27377319 C-24.10711207 114.13419736 -33.62332865 113.98153971 -43.13946533 113.82064819 C-43.16379387 112.56765678 -43.16379387 112.56765678 -43.18861389 111.28935242 C-43.27128105 107.37887501 -43.36709899 103.46887555 -43.47149658 99.55892944 C-43.48994944 98.84984247 -43.50840229 98.1407555 -43.52741432 97.41018105 C-43.76141443 88.93571444 -44.27558363 80.66956189 -45.71368408 72.30111694 C-47.66678991 59.08492263 -48.39447414 47.08952988 -40.07745361 35.87680054 C-34.9153086 29.57847595 -29.28241772 23.80855759 -23.38946533 18.19564819 C-22.89544094 17.72441402 -22.40141655 17.25317986 -21.89242172 16.76766586 C-16.87208115 12.00812952 -11.73297142 7.37757257 -6.44903564 2.91195679 C-5.7117926 2.28727509 -4.97454956 1.66259338 -4.21496582 1.01898193 C-2.13946533 -0.17935181 -2.13946533 -0.17935181 0 0 Z " class="dynamic-fill" transform="translate(127.13946533203125,162.17935180664063)"/>
<path d="M0 0 C2.97 0 5.94 0 9 0 C11.23816593 6.30755854 12.7944003 12.41557086 14 19 C16.475 9.595 16.475 9.595 19 0 C22.3 0 25.6 0 29 0 C31.00993705 4.01987409 31.55305762 6.83787308 32.125 11.25 C32.37636719 13.14492187 32.37636719 13.14492187 32.6328125 15.078125 C32.75398438 16.04234375 32.87515625 17.0065625 33 18 C33.66 18 34.32 18 35 18 C35.04898438 17.3709375 35.09796875 16.741875 35.1484375 16.09375 C35.63435199 10.53086686 36.50553626 5.38006948 38 0 C41.3 0 44.6 0 48 0 C47.28711357 6.83182833 45.37397276 13.28222837 43.5 19.875 C43.17902344 21.02742188 42.85804688 22.17984375 42.52734375 23.3671875 C40.13127309 31.86872691 40.13127309 31.86872691 39 33 C37.31391034 33.07205511 35.62499341 33.08386068 33.9375 33.0625 C33.01839844 33.05347656 32.09929687 33.04445312 31.15234375 33.03515625 C30.44207031 33.02355469 29.73179687 33.01195312 29 33 C28.32586789 31.08594633 27.6609668 29.16863974 27 27.25 C26.62875 26.18265625 26.2575 25.1153125 25.875 24.015625 C25 21 25 21 25 17 C24.34 17 23.68 17 23 17 C22.896875 17.969375 22.79375 18.93875 22.6875 19.9375 C22.05095782 24.50562625 20.53528795 28.66114276 19 33 C15.7 33 12.4 33 9 33 C0 6.52427184 0 6.52427184 0 0 Z " class="dynamic-fill" transform="translate(310,217)"/>
<path d="M0 0 C9 0 9 0 11.03149414 1.56054688 C11.44520264 2.27275391 11.85891113 2.98496094 12.28515625 3.71875 C12.75244141 4.48574219 13.21972656 5.25273437 13.70117188 6.04296875 C14.15041016 6.85378906 14.59964844 7.66460937 15.0625 8.5 C15.54654297 9.31082031 16.03058594 10.12164062 16.52929688 10.95703125 C17.7157759 12.95407515 18.86197466 14.97495305 20 17 C20.33 11.39 20.66 5.78 21 0 C23.64 0 26.28 0 29 0 C29 10.89 29 21.78 29 33 C26.03 33 23.06 33 20 33 C17.57106573 30.40088562 16.12788575 28.51176274 14.4375 25.5 C14.00115234 24.78457031 13.56480469 24.06914062 13.11523438 23.33203125 C12.0475521 21.57211542 11.01967598 19.78815829 10 18 C9.67 22.95 9.34 27.9 9 33 C6.03 33 3.06 33 0 33 C0 22.11 0 11.22 0 0 Z " class="dynamic-fill" transform="translate(279,217)"/>
<path d="M0 0 C5.00230198 2.45567552 8.49851535 5.9970307 11 11 C11.50282832 16.50638223 11.71321529 21.40239776 9.4375 26.5 C4.98829139 31.06329088 0.38851571 33.61116613 -5.95703125 34.08984375 C-11.42775267 33.84925753 -15.60245179 31.80915965 -19.4375 27.9375 C-22.74897866 23.65791146 -23.368341 19.31952939 -23 14 C-21.28568987 8.19039346 -18.39926288 4.07449662 -13.17578125 0.88671875 C-8.94837492 -0.8361201 -4.4720985 -0.52574743 0 0 Z M-11.9375 10.0625 C-13.58916681 13.07436301 -13.88214109 15.58209158 -14 19 C-12.65437601 21.94755732 -11.91445456 23.54277272 -9 25 C-5.58428147 25.50031206 -5.58428147 25.50031206 -2 25 C1.22456813 22.27151928 1.91290117 20.62057913 2.5 16.4375 C2.23476305 13.02102062 2.23476305 13.02102062 0.5 10.5625 C-3.41600857 8.11499464 -7.7286256 7.75440759 -11.9375 10.0625 Z " class="dynamic-fill" transform="translate(265,217)"/>
<path d="M0 0 C2.87525599 0.97214316 4.20129607 2.03423595 6.32188416 4.18566895 C7.02223282 4.88631973 7.72258148 5.58697052 8.44415283 6.30885315 C9.18392868 7.06927414 9.92370453 7.82969513 10.68589783 8.61315918 C11.45568466 9.3886058 12.2254715 10.16405243 13.01858521 10.96299744 C15.47322779 13.44001657 17.91359267 15.93058496 20.35386658 18.42175293 C22.01635581 20.10430529 23.67975675 21.78595732 25.34410095 23.4666748 C29.42049011 27.58714845 33.48524552 31.71883146 37.54136658 35.85925293 C38.20136658 35.52925293 38.86136658 35.19925293 39.54136658 34.85925293 C35.58136658 30.89925293 31.62136658 26.93925293 27.54136658 22.85925293 C27.87136658 22.19925293 28.20136658 21.53925293 28.54136658 20.85925293 C30.5065328 22.6020609 32.46337027 24.35289698 34.41636658 26.10925293 C34.97195251 26.60038574 35.52753845 27.09151855 36.09996033 27.59753418 C38.89986294 30.12756666 41.19645179 32.28416298 42.54136658 35.85925293 C41.55136658 36.84925293 40.56136658 37.83925293 39.54136658 38.85925293 C35.75956966 37.5718154 33.5384646 36.18634763 30.86949158 33.22644043 C30.20941101 32.50641846 29.54933044 31.78639648 28.86924744 31.04455566 C28.18354675 30.28215576 27.49784607 29.51975586 26.79136658 28.73425293 C21.87967188 23.38165806 16.98688575 18.26250196 11.43199158 13.56628418 C8.7202871 11.11790638 6.43773516 8.36289992 4.14683533 5.52331543 C2.40461074 3.717506 0.79252228 2.92103695 -1.45863342 1.85925293 C-15.19723322 11.10437249 -32.04162143 22.93175228 -36.47615051 39.70880127 C-40.19904155 59.69740248 -37.52314641 80.96104872 -36.45863342 100.85925293 C-10.38863342 100.85925293 15.68136658 100.85925293 42.54136658 100.85925293 C42.87136658 102.50925293 43.20136658 104.15925293 43.54136658 105.85925293 C39.20224734 108.01068584 35.27699597 108.10051492 30.53819275 107.99450684 C29.7474234 107.98504532 28.95665405 107.9755838 28.141922 107.96583557 C25.53915209 107.93227109 22.93686979 107.88412535 20.33433533 107.83581543 C18.52545429 107.8096366 16.71655983 107.78437054 14.90765381 107.75997925 C10.15476959 107.69344293 5.40216882 107.61452534 0.64952087 107.53302002 C-4.20347748 107.45198797 -9.05664171 107.38267759 -13.9098053 107.31237793 C-23.42628016 107.17280209 -32.94249674 107.02014445 -42.45863342 106.85925293 C-42.48499878 106.03407166 -42.51136414 105.20889038 -42.53852844 104.35870361 C-42.61762894 101.88624426 -42.69695415 99.4137921 -42.77644348 96.94134521 C-42.86755991 94.10556262 -42.95744823 91.26974439 -43.04658508 88.43389893 C-43.2740982 81.24588373 -43.52634162 74.06018695 -43.83815002 66.87524414 C-43.97482034 63.45339504 -44.06311904 60.03148824 -44.13832092 56.60778809 C-44.18622326 54.90559193 -44.25545359 53.20389344 -44.34339905 51.5032959 C-45.09652768 36.44353346 -45.09652768 36.44353346 -40.9566803 31.2166748 C-38.3596416 28.4262362 -35.53849842 26.09743139 -32.45863342 23.85925293 C-32.45863342 24.84925293 -32.45863342 25.83925293 -32.45863342 26.85925293 C-33.7371293 27.96055408 -35.05710468 29.01404501 -36.39613342 30.04089355 C-40.89785124 34.41012034 -41.36426095 38.1344636 -41.5071106 44.27814484 C-41.51778677 46.50400061 -41.48887425 48.72735832 -41.45863342 50.95300293 C-41.46616125 52.51100688 -41.47720342 54.06899744 -41.49159241 55.62695312 C-41.5199013 59.70448579 -41.50082098 63.7804389 -41.47151184 67.85791016 C-41.45004309 72.02773088 -41.47388337 76.19727328 -41.49378967 80.36706543 C-41.5261495 88.53152758 -41.50839518 96.69488003 -41.45863342 104.85925293 C-39.74704041 104.85055176 -39.74704041 104.85055176 -38.00086975 104.8416748 C-22.0893373 104.7882711 -6.18428232 105.04892023 9.72416687 105.32281494 C13.32532129 105.38442871 16.92650941 105.44400734 20.5276947 105.50378418 C27.5322852 105.62034136 34.53683742 105.73906073 41.54136658 105.85925293 C41.54136658 104.86925293 41.54136658 103.87925293 41.54136658 102.85925293 C40.72297302 102.86710815 40.72297302 102.86710815 39.88804626 102.87512207 C14.10108186 103.08023385 -11.67921269 102.4052625 -37.45863342 101.85925293 C-38.59073587 89.74410806 -38.81149664 77.61377676 -38.91859436 65.45300293 C-38.94541346 63.12955349 -38.98656429 60.80622774 -39.04164124 58.48327637 C-39.12077878 55.08989661 -39.15387197 51.69873213 -39.17738342 48.30456543 C-39.22687134 46.75903488 -39.22687134 46.75903488 -39.27735901 45.18228149 C-39.26279335 39.91902372 -38.83790278 36.64921542 -35.3419342 32.59143066 C-34.06693276 31.32746347 -32.77244025 30.08283511 -31.45863342 28.85925293 C-30.32714434 27.66922952 -29.20118915 26.47391669 -28.08119202 25.27307129 C-25.01245637 22.09936282 -21.91757848 18.95135211 -18.81507874 15.81066895 C-17.48428421 14.45806618 -16.1598042 13.09922407 -14.84144592 11.73449707 C-12.92336185 9.74983919 -10.98660288 7.78529187 -9.04457092 5.82409668 C-8.45799713 5.20969223 -7.87142334 4.59528778 -7.26707458 3.96226501 C-3.10628488 -0.17782256 -3.10628488 -0.17782256 0 0 Z " class="dynamic-fill" transform="translate(126.45863342285156,169.1407470703125)"/>
<path d="M0 0 C1.47906892 -0.02689216 2.95827483 -0.04634621 4.4375 -0.0625 C5.26121094 -0.07410156 6.08492187 -0.08570313 6.93359375 -0.09765625 C9 0 9 0 10 1 C10.15764405 2.77869726 10.25100677 4.56318476 10.31640625 6.34765625 C10.37924805 7.96704102 10.37924805 7.96704102 10.44335938 9.61914062 C10.48267578 10.75544922 10.52199219 11.89175781 10.5625 13.0625 C10.60568359 14.20267578 10.64886719 15.34285156 10.69335938 16.51757812 C10.79982839 19.34492195 10.90184207 22.17235738 11 25 C13.97065509 24.65772428 13.97065509 24.65772428 17 24 C18.23060421 21.53879159 18.2057723 19.74223134 18.31640625 16.9921875 C18.35830078 16.00605469 18.40019531 15.01992187 18.44335938 14.00390625 C18.48267578 12.97136719 18.52199219 11.93882812 18.5625 10.875 C18.60568359 9.83472656 18.64886719 8.79445312 18.69335938 7.72265625 C18.7996288 5.14857472 18.90166583 2.57439492 19 0 C20.47906892 -0.02689216 21.95827483 -0.04634621 23.4375 -0.0625 C24.26121094 -0.07410156 25.08492187 -0.08570313 25.93359375 -0.09765625 C28 0 28 0 29 1 C29.28102796 4.1785965 29.23191624 7.37297679 29.25 10.5625 C29.270625 11.44486328 29.29125 12.32722656 29.3125 13.23632812 C29.34774395 19.19696038 28.55402481 23.5900562 26 29 C22.32698588 32.33133839 18.88314411 33.71098556 14.01953125 34.1015625 C9.45253556 33.87188767 6.04548368 31.88040731 2.625 29 C-0.13666093 25.6010327 -0.11997943 22.67611245 -0.09765625 18.45703125 C-0.09443359 17.38388672 -0.09121094 16.31074219 -0.08789062 15.20507812 C-0.07951172 14.08552734 -0.07113281 12.96597656 -0.0625 11.8125 C-0.05798828 10.68134766 -0.05347656 9.55019531 -0.04882812 8.38476562 C-0.03703498 5.58979073 -0.0205765 2.7949218 0 0 Z " class="dynamic-fill" transform="translate(138,217)"/>
<path d="M0 0 C3.63 0 7.26 0 11 0 C12.57058493 4.37682832 14.13705846 8.75509751 15.69970703 13.13476562 C16.23210143 14.62508016 16.76562555 16.11499161 17.30029297 17.60449219 C18.06774099 19.74309502 18.83114081 21.88310517 19.59375 24.0234375 C19.83436157 24.69120209 20.07497314 25.35896667 20.32287598 26.04696655 C22 30.77225659 22 30.77225659 22 33 C19.03 33 16.06 33 13 33 C12.34 31.68 11.68 30.36 11 29 C8.35212912 28.29626983 8.35212912 28.29626983 5.375 28.25 C4.37210937 28.19328125 3.36921875 28.1365625 2.3359375 28.078125 C1.17964844 28.03945312 1.17964844 28.03945312 0 28 C-0.33 29.65 -0.66 31.3 -1 33 C-3.97 33 -6.94 33 -10 33 C-8.52037974 25.59411122 -6.31186985 18.58019802 -3.875 11.4375 C-3.50246094 10.33341797 -3.12992187 9.22933594 -2.74609375 8.09179688 C-1.83485692 5.39313395 -0.91800356 2.6963686 0 0 Z M5 14 C4.34 16.31 3.68 18.62 3 21 C4.65 21 6.3 21 8 21 C7.65772428 18.02934491 7.65772428 18.02934491 7 15 C6.34 14.67 5.68 14.34 5 14 Z " class="dynamic-fill" transform="translate(367,217)"/>
<path d="M0 0 C3.3 0 6.6 0 10 0 C12.83723541 6.92988471 15.40051243 13.89103546 17.75 21 C18.06582031 21.93972656 18.38164062 22.87945312 18.70703125 23.84765625 C19.00480469 24.74355469 19.30257812 25.63945312 19.609375 26.5625 C20.0110791 27.77099609 20.0110791 27.77099609 20.42089844 29.00390625 C21 31 21 31 21 33 C17.7 33 14.4 33 11 33 C10.505 30.525 10.505 30.525 10 28 C6.37 28 2.74 28 -1 28 C-1.33 29.65 -1.66 31.3 -2 33 C-5.3 33 -8.6 33 -12 33 C-4.61702128 10.27659574 -4.61702128 10.27659574 0 0 Z M4 13 C3.34 15.64 2.68 18.28 2 21 C3.65 21 5.3 21 7 21 C6.34 18.36 5.68 15.72 5 13 C4.67 13 4.34 13 4 13 Z " class="dynamic-fill" transform="translate(116,217)"/>
<path d="M0 0 C3.41328425 2.04797055 5.3497874 3.62233736 7.5859375 6.9765625 C7.5859375 7.9665625 7.5859375 8.9565625 7.5859375 9.9765625 C-0.11555504 11.26014459 -0.11555504 11.26014459 -4.4140625 8.9765625 C-7.21531277 8.62781247 -9.55762328 8.7462045 -12.4140625 8.9765625 C-14.88748516 12.68669649 -14.79909736 14.58716512 -14.4140625 18.9765625 C-13.53076607 21.51614484 -13.53076607 21.51614484 -11.4140625 22.9765625 C-7.87192265 23.47664044 -7.87192265 23.47664044 -4.4140625 22.9765625 C-3.7540625 22.3165625 -3.0940625 21.6565625 -2.4140625 20.9765625 C-0.03125 20.78125 -0.03125 20.78125 2.7109375 20.8515625 C3.62101562 20.86960938 4.53109375 20.88765625 5.46875 20.90625 C6.16742188 20.92945313 6.86609375 20.95265625 7.5859375 20.9765625 C7.37148827 24.72942404 6.6388033 25.92243799 3.9609375 28.6640625 C-0.44722307 31.99117417 -4.97470293 33.2707518 -10.4765625 32.8515625 C-15.43176062 32.03529924 -18.92332845 29.67291504 -22.2265625 25.9140625 C-25.09781613 21.22938553 -24.96530808 16.2921449 -24.4140625 10.9765625 C-23.07949413 6.2573358 -21.15141564 3.57848343 -17.3515625 0.4765625 C-11.92377581 -2.12085474 -5.53649571 -2.3471875 0 0 Z " class="dynamic-fill" transform="translate(193.4140625,218.0234375)"/>
<path d="M0 0 C6.93 0 13.86 0 21 0 C21 2.31 21 4.62 21 7 C20 8 20 8 17.49609375 8.09765625 C15.98208984 8.08025391 15.98208984 8.08025391 14.4375 8.0625 C13.42558594 8.05347656 12.41367187 8.04445312 11.37109375 8.03515625 C10.19740234 8.01775391 10.19740234 8.01775391 9 8 C9 9.65 9 11.3 9 13 C9.71027344 12.98839844 10.42054688 12.97679687 11.15234375 12.96484375 C12.07144531 12.95582031 12.99054688 12.94679687 13.9375 12.9375 C14.85402344 12.92589844 15.77054687 12.91429687 16.71484375 12.90234375 C19 13 19 13 20 14 C20.04080783 15.99958364 20.04254356 18.00045254 20 20 C16.37 20 12.74 20 9 20 C9 21.98 9 23.96 9 26 C9.78246094 25.98839844 10.56492187 25.97679687 11.37109375 25.96484375 C12.38300781 25.95582031 13.39492188 25.94679687 14.4375 25.9375 C15.44683594 25.92589844 16.45617187 25.91429687 17.49609375 25.90234375 C20 26 20 26 21 27 C21 28.98 21 30.96 21 33 C14.07 33 7.14 33 0 33 C0 22.11 0 11.22 0 0 Z " class="dynamic-fill" transform="translate(411,217)"/>
<path d="M0 0 C8.58 0 17.16 0 26 0 C26 2.64 26 5.28 26 8 C23.36 8 20.72 8 18 8 C18 16.25 18 24.5 18 33 C14.7 33 11.4 33 8 33 C8 24.75 8 16.5 8 8 C5.36 8 2.72 8 0 8 C0 5.36 0 2.72 0 0 Z " class="dynamic-fill" transform="translate(202,217)"/>
<path d="M0 0 C2.64 0 5.28 0 8 0 C8 8.58 8 17.16 8 26 C11.3 26 14.6 26 18 26 C19 27 19 27 19 33 C12.73 33 6.46 33 0 33 C0 22.11 0 11.22 0 0 Z " class="dynamic-fill" transform="translate(391,217)"/>
<path d="M0 0 C2.97 0 5.94 0 9 0 C9 10.89 9 21.78 9 33 C5.7 33 2.4 33 -1 33 C-1.02465392 28.46102295 -1.04283789 23.92208457 -1.05493164 19.38305664 C-1.0599714 17.83780234 -1.0668032 16.29255284 -1.07543945 14.74731445 C-1.08752076 12.53074971 -1.09323173 10.31424782 -1.09765625 8.09765625 C-1.10281754 7.4028566 -1.10797882 6.70805695 -1.11329651 5.99220276 C-1.11349277 4.3277067 -1.06189129 2.66334501 -1 1 C-0.67 0.67 -0.34 0.34 0 0 Z " class="dynamic-fill" transform="translate(231,217)"/>
<path d="M0 0 C2.97 0 5.94 0 9 0 C12.42857143 9.57142857 12.42857143 9.57142857 12 14 C10.03698408 10.49461443 9.04097612 6.86648272 8 3 C5.03 2.505 5.03 2.505 2 2 C2.24234375 2.83772949 2.4846875 3.67545898 2.734375 4.53857422 C3.63102287 7.6427864 4.52530139 10.74766837 5.41796875 13.85302734 C5.80503783 15.19770272 6.19305416 16.54210579 6.58203125 17.88623047 C7.14050415 19.81666612 7.6953057 21.74816271 8.25 23.6796875 C8.58515625 24.84226074 8.9203125 26.00483398 9.265625 27.20263672 C10 30 10 30 10 32 C12.64 32 15.28 32 18 32 C18.16435547 31.07380859 18.16435547 31.07380859 18.33203125 30.12890625 C19.4377266 24.22287499 20.95361435 18.64802441 23 13 C23.66 13 24.32 13 25 13 C25.65077296 15.04009755 26.29539824 17.08215669 26.9375 19.125 C27.29714844 20.26195312 27.65679687 21.39890625 28.02734375 22.5703125 C28.91898339 25.71432699 29.53351014 28.76894393 30 32 C32.64 32 35.28 32 38 32 C38.10812012 31.4013916 38.21624023 30.8027832 38.32763672 30.18603516 C39.54025775 23.77540299 41.19630341 17.60404402 43.125 11.375 C43.40214844 10.46621094 43.67929687 9.55742187 43.96484375 8.62109375 C44.63897877 6.41272041 45.31739977 4.20576837 46 2 C43.69 2 41.38 2 39 2 C38.896875 3.216875 38.79375 4.43375 38.6875 5.6875 C38.01161197 11.90964572 36.49138037 17.93130125 35 24 C34.34 23.34 33.68 22.68 33 22 C33 20.68 33 19.36 33 18 C33.66 18 34.32 18 35 18 C35.04898438 17.3709375 35.09796875 16.741875 35.1484375 16.09375 C35.63435199 10.53086686 36.50553626 5.38006948 38 0 C41.3 0 44.6 0 48 0 C47.28711357 6.83182833 45.37397276 13.28222837 43.5 19.875 C43.17902344 21.02742188 42.85804688 22.17984375 42.52734375 23.3671875 C40.13127309 31.86872691 40.13127309 31.86872691 39 33 C37.31391034 33.07205511 35.62499341 33.08386068 33.9375 33.0625 C33.01839844 33.05347656 32.09929687 33.04445312 31.15234375 33.03515625 C30.44207031 33.02355469 29.73179687 33.01195312 29 33 C28.32586789 31.08594633 27.6609668 29.16863974 27 27.25 C26.62875 26.18265625 26.2575 25.1153125 25.875 24.015625 C25 21 25 21 25 17 C24.34 17 23.68 17 23 17 C22.896875 17.969375 22.79375 18.93875 22.6875 19.9375 C22.05095782 24.50562625 20.53528795 28.66114276 19 33 C15.7 33 12.4 33 9 33 C0 6.52427184 0 6.52427184 0 0 Z " class="dynamic-fill" transform="translate(310,217)"/>
<path d="M0 0 C1.47906892 -0.02689216 2.95827483 -0.04634621 4.4375 -0.0625 C5.26121094 -0.07410156 6.08492187 -0.08570313 6.93359375 -0.09765625 C9 0 9 0 10 1 C10.15764405 2.77869726 10.25100677 4.56318476 10.31640625 6.34765625 C10.37924805 7.96704102 10.37924805 7.96704102 10.44335938 9.61914062 C10.48267578 10.75544922 10.52199219 11.89175781 10.5625 13.0625 C10.60568359 14.20267578 10.64886719 15.34285156 10.69335938 16.51757812 C10.79982839 19.34492195 10.90184207 22.17235738 11 25 C13.97065509 24.65772428 13.97065509 24.65772428 17 24 C18.23060421 21.53879159 18.2057723 19.74223134 18.31640625 16.9921875 C18.35830078 16.00605469 18.40019531 15.01992187 18.44335938 14.00390625 C18.48267578 12.97136719 18.52199219 11.93882812 18.5625 10.875 C18.60568359 9.83472656 18.64886719 8.79445312 18.69335938 7.72265625 C18.7996288 5.14857472 18.90166583 2.57439492 19 0 C20.47906892 -0.02689216 21.95827483 -0.04634621 23.4375 -0.0625 C24.26121094 -0.07410156 25.08492187 -0.08570313 25.93359375 -0.09765625 C28 0 28 0 29 1 C29.28102796 4.1785965 29.23191624 7.37297679 29.25 10.5625 C29.270625 11.44486328 29.29125 12.32722656 29.3125 13.23632812 C29.34762858 19.17744875 28.67129258 23.65139842 26 29 C23.89160156 30.21704102 23.89160156 30.21704102 22 31 C22.64453125 29.906875 23.2890625 28.81375 23.953125 27.6875 C26.53294375 22.52786251 26.66372889 17.6860506 26.75 12 C26.77964844 11.03449219 26.80929688 10.06898438 26.83984375 9.07421875 C26.90988791 6.71606534 26.96290292 4.35886254 27 2 C25.02 2 23.04 2 21 2 C21.02320313 3.24136719 21.04640625 4.48273438 21.0703125 5.76171875 C21.08907731 7.4036398 21.10727675 9.04556738 21.125 10.6875 C21.14175781 11.50412109 21.15851563 12.32074219 21.17578125 13.16210938 C21.21123829 17.54105333 21.15547121 21.05835159 19 25 C18.34 25.66 17.68 26.32 17 27 C13.5 26.8125 13.5 26.8125 10 26 C7.83073341 22.74610012 7.75919951 21.86604043 7.8046875 18.11328125 C7.81435547 16.7065918 7.81435547 16.7065918 7.82421875 15.27148438 C7.84097656 14.29501953 7.85773438 13.31855469 7.875 12.3125 C7.88402344 11.32443359 7.89304688 10.33636719 7.90234375 9.31835938 C7.9259157 6.87866235 7.95881978 4.43945303 8 2 C6.02 2 4.04 2 2 2 C2.1102391 5.72975606 2.24078413 9.45853583 2.375 13.1875 C2.4059375 14.24259766 2.436875 15.29769531 2.46875 16.38476562 C2.50742188 17.40634766 2.54609375 18.42792969 2.5859375 19.48046875 C2.6173584 20.41785889 2.6487793 21.35524902 2.68115234 22.32104492 C3.02022831 25.16995808 3.82257457 27.39520444 5 30 C1.125 27.375 1.125 27.375 0 24 C-0.08239169 22.15389468 -0.10743359 20.30494836 -0.09765625 18.45703125 C-0.09443359 17.38388672 -0.09121094 16.31074219 -0.08789062 15.20507812 C-0.07951172 14.08552734 -0.07113281 12.96597656 -0.0625 11.8125 C-0.05798828 10.68134766 -0.05347656 9.55019531 -0.04882812 8.38476562 C-0.03703498 5.58979073 -0.0205765 2.7949218 0 0 Z " class="dynamic-fill" transform="translate(138,217)"/>
<path d="M0 0 C9 0 9 0 11.03149414 1.56054688 C11.44520264 2.27275391 11.85891113 2.98496094 12.28515625 3.71875 C12.75244141 4.48574219 13.21972656 5.25273437 13.70117188 6.04296875 C14.15041016 6.85378906 14.59964844 7.66460937 15.0625 8.5 C15.54654297 9.31082031 16.03058594 10.12164062 16.52929688 10.95703125 C17.7157759 12.95407515 18.86197466 14.97495305 20 17 C20.33 11.39 20.66 5.78 21 0 C23.64 0 26.28 0 29 0 C29 10.89 29 21.78 29 33 C26.03 33 23.06 33 20 33 C17.57106573 30.40088562 16.12788575 28.51176274 14.4375 25.5 C14.00115234 24.78457031 13.56480469 24.06914062 13.11523438 23.33203125 C12.0475521 21.57211542 11.01967598 19.78815829 10 18 C9.67 22.95 9.34 27.9 9 33 C6.03 33 3.06 33 0 33 C0 22.11 0 11.22 0 0 Z M1 2 C1 11.9 1 21.8 1 32 C2.98 32 4.96 32 7 32 C7.495 23.09 7.495 23.09 8 14 C12.47002854 18.47002854 12.47002854 18.47002854 14.11328125 21.453125 C14.47486328 22.071875 14.83644531 22.690625 15.20898438 23.328125 C15.948557 24.61615946 16.67245347 25.91331463 17.38085938 27.21875 C18.58175792 29.35633316 18.58175792 29.35633316 21 32 C23.31 32 25.62 32 28 32 C28 22.1 28 12.2 28 2 C26.02 2 24.04 2 22 2 C22 8.27 22 14.54 22 21 C17.53219156 16.53219156 17.53219156 16.53219156 15.66796875 13.328125 C15.26126953 12.66425781 14.85457031 12.00039062 14.43554688 11.31640625 C13.5996807 9.93245255 12.77941068 8.53896515 11.97460938 7.13671875 C11.56404297 6.47800781 11.15347656 5.81929687 10.73046875 5.140625 C10.37364014 4.53766602 10.01681152 3.93470703 9.64916992 3.31347656 C7.43879233 1.27316788 7.43879233 1.27316788 1 2 Z " class="dynamic-fill" transform="translate(279,217)"/>
<path d="M0 0 C6.93 0 13.86 0 21 0 C21 2.31 21 4.62 21 7 C20 8 20 8 17.49609375 8.09765625 C15.98208984 8.08025391 15.98208984 8.08025391 14.4375 8.0625 C13.42558594 8.05347656 12.41367187 8.04445312 11.37109375 8.03515625 C10.19740234 8.01775391 10.19740234 8.01775391 9 8 C9 9.65 9 11.3 9 13 C9.71027344 12.98839844 10.42054688 12.97679687 11.15234375 12.96484375 C12.07144531 12.95582031 12.99054688 12.94679687 13.9375 12.9375 C14.85402344 12.92589844 15.77054687 12.91429687 16.71484375 12.90234375 C19 13 19 13 20 14 C20.04080783 15.99958364 20.04254356 18.00045254 20 20 C16.37 20 12.74 20 9 20 C9 21.98 9 23.96 9 26 C9.78246094 25.98839844 10.56492187 25.97679687 11.37109375 25.96484375 C12.38300781 25.95582031 13.39492188 25.94679687 14.4375 25.9375 C15.44683594 25.92589844 16.45617187 25.91429687 17.49609375 25.90234375 C20 26 20 26 21 27 C21 28.98 21 30.96 21 33 C14.07 33 7.14 33 0 33 C0 22.11 0 11.22 0 0 Z M2 2 C2 11.9 2 21.8 2 32 C7.94 32 13.88 32 20 32 C20 30.68 20 29.36 20 28 C16.37 27.67 12.74 27.34 9 27 C8.67 24.36 8.34 21.72 8 19 C11.3 19 14.6 19 18 19 C18 17.35 18 15.7 18 14 C14.7 14 11.4 14 8 14 C8 11.36 8 8.72 8 6 C11.96 6 15.92 6 20 6 C20 4.68 20 3.36 20 2 C14.06 2 8.12 2 2 2 Z " class="dynamic-fill" transform="translate(411,217)"/>
<path d="M0 0 C8.58 0 17.16 0 26 0 C26 2.64 26 5.28 26 8 C23.36 8 20.72 8 18 8 C18 16.25 18 24.5 18 33 C14.7 33 11.4 33 8 33 C8 24.75 8 16.5 8 8 C5.36 8 2.72 8 0 8 C0 5.36 0 2.72 0 0 Z M2 2 C2 3.32 2 4.64 2 6 C4.64 6 7.28 6 10 6 C10 14.58 10 23.16 10 32 C11.98 32 13.96 32 16 32 C16.33 23.75 16.66 15.5 17 7 C19.64 6.67 22.28 6.34 25 6 C25 4.68 25 3.36 25 2 C17.41 2 9.82 2 2 2 Z " class="dynamic-fill" transform="translate(202,217)"/>
<path d="M0 0 C2.97 0 5.94 0 9 0 C9 10.89 9 21.78 9 33 C5.7 33 2.4 33 -1 33 C-1.02465392 28.46102295 -1.04283789 23.92208457 -1.05493164 19.38305664 C-1.0599714 17.83780234 -1.0668032 16.29255284 -1.07543945 14.74731445 C-1.08752076 12.53074971 -1.09323173 10.31424782 -1.09765625 8.09765625 C-1.10281754 7.4028566 -1.10797882 6.70805695 -1.11329651 5.99220276 C-1.11349277 4.3277067 -1.06189129 2.66334501 -1 1 C-0.67 0.67 -0.34 0.34 0 0 Z M1 2 C1 11.9 1 21.8 1 32 C2.98 32 4.96 32 7 32 C7 22.1 7 12.2 7 2 C5.02 2 3.04 2 1 2 Z " class="dynamic-fill" transform="translate(231,217)"/>
<path d="M0 0 C2.64 0 5.28 0 8 0 C8 0.66 8 1.32 8 2 C5.69 2 3.38 2 1 2 C1 11.9 1 21.8 1 32 C6.28 32 11.56 32 17 32 C17 30.68 17 29.36 17 28 C14.03 28 11.06 28 8 28 C8 27.34 8 26.68 8 26 C9.64574566 25.97311849 11.29161413 25.95365877 12.9375 25.9375 C13.85402344 25.92589844 14.77054687 25.91429687 15.71484375 25.90234375 C18 26 18 26 19 27 C19 28.98 19 30.96 19 33 C12.73 33 6.46 33 0 33 C0 22.11 0 11.22 0 0 Z " class="dynamic-fill" transform="translate(391,217)"/>
<path d="M0 0 C0.33 0.66 0.66 1.32 1 2 C0.30132812 1.96519531 -0.39734375 1.93039063 -1.1171875 1.89453125 C-2.02726563 1.86746094 -2.93734375 1.84039062 -3.875 1.8125 C-4.77992188 1.77769531 -5.68484375 1.74289063 -6.6171875 1.70703125 C-7.40351563 1.80371094 -8.18984375 1.90039062 -9 2 C-11.47342266 5.71013399 -11.38503486 7.61060262 -11 12 C-10.11670357 14.53958234 -10.11670357 14.53958234 -8 16 C-4.45786015 16.50007794 -4.45786015 16.50007794 -1 16 C-0.34 15.34 0.32 14.68 1 14 C3.3828125 13.8046875 3.3828125 13.8046875 6.125 13.875 C7.03507812 13.89304688 7.94515625 13.91109375 8.8828125 13.9296875 C9.58148438 13.95289063 10.28015625 13.97609375 11 14 C10.5206753 18.31392226 9.2542015 20.16569547 6 23 C5.34 22.67 4.68 22.34 4 22 C4.639375 21.21625 5.27875 20.4325 5.9375 19.625 C7.98142313 17.20460719 7.98142313 17.20460719 9 15 C4.13828325 15.34069769 4.13828325 15.34069769 0 17.625 C-2 19 -2 19 -5.5 18.9375 C-9.26364588 17.92938057 -10.62413219 17.01552452 -13 14 C-14.43304064 11.13391871 -14.30644155 9.18699217 -14 6 C-10.24553276 -0.86161255 -7.53283969 -1.53446734 0 0 Z " class="dynamic-fill" transform="translate(190,225)"/>
<path d="M0 0 C5.00230198 2.45567552 8.49851535 5.9970307 11 11 C12.03134153 22.29403507 12.03134153 22.29403507 9 26.75 C8.01 27.86375 8.01 27.86375 7 29 C6.34 28.67 5.68 28.34 5 28 C5.474375 27.34 5.94875 26.68 6.4375 26 C9.12209462 20.84557832 9.66585327 16.24186808 7.9375 10.75 C6.17381622 6.70623855 4.03811283 4.9047702 0 3 C-5.92063428 1.26713143 -9.59843859 2.24626281 -15 5 C-15.99 5.33 -16.98 5.66 -18 6 C-18 5.34 -18 4.68 -18 4 C-12.13116703 -0.17339234 -7.15427535 -1.06989918 0 0 Z " class="dynamic-fill" transform="translate(265,217)"/>
<path d="M0 0 C3.41328425 2.04797055 5.3497874 3.62233736 7.5859375 6.9765625 C7.2559375 7.9665625 6.9259375 8.9565625 6.5859375 9.9765625 C6.22242188 9.49445313 5.85890625 9.01234375 5.484375 8.515625 C2.23577972 4.43405657 -0.04383642 1.8189509 -5.4140625 0.9765625 C-12.73622939 0.64931482 -17.04016329 3.18837438 -22.4140625 7.9765625 C-21.50057782 4.32262378 -20.47642421 3.02565576 -17.4765625 0.6640625 C-12.01388107 -2.11280056 -5.64798515 -2.39445325 0 0 Z " class="dynamic-fill" transform="translate(193.4140625,218.0234375)"/>
<path d="M0 0 C3.3 0 6.6 0 10 0 C16.18556701 15.25773196 16.18556701 15.25773196 15 20 C13.02 14.39 11.04 8.78 9 3 C6.03 2.67 3.06 2.34 0 2 C-0.33 2.66 -0.66 3.32 -1 4 C-0.67 2.68 -0.34 1.36 0 0 Z " class="dynamic-fill" transform="translate(116,217)"/>
<path d="M0 0 C0.66 0 1.32 0 2 0 C2.50559908 1.43554025 3.0042749 2.8735202 3.5 4.3125 C3.7784375 5.11300781 4.056875 5.91351563 4.34375 6.73828125 C5 9 5 9 5 12 C2.03 12 -0.94 12 -4 12 C-3.52494322 10.18641846 -3.04483958 8.37415821 -2.5625 6.5625 C-2.29566406 5.55316406 -2.02882813 4.54382813 -1.75390625 3.50390625 C-1 1 -1 1 0 0 Z M0 4 C-0.66 6.31 -1.32 8.62 -2 11 C-0.35 11 1.3 11 3 11 C2.65772428 8.02934491 2.65772428 8.02934491 2 5 C1.34 4.67 0.68 4.34 0 4 Z " class="dynamic-fill" transform="translate(372,227)"/>
<path d="M0 0 C0.66 0 1.32 0 2 0 C2.53394179 1.4117783 3.05165104 2.82970244 3.5625 4.25 C3.85253906 5.03890625 4.14257812 5.8278125 4.44140625 6.640625 C5.04522837 9.19103452 4.8473932 10.55322229 4 13 C1.6568787 12.74438677 -0.67843403 12.40729228 -3 12 C-4 10 -4 10 -3.22265625 7.6171875 C-2.83980469 6.71226562 -2.45695312 5.80734375 -2.0625 4.875 C-1.68222656 3.96492187 -1.30195312 3.05484375 -0.91015625 2.1171875 C-0.60980469 1.41851562 -0.30945313 0.71984375 0 0 Z M0 3 C-0.66 5.64 -1.32 8.28 -2 11 C-0.35 11 1.3 11 3 11 C2.34 8.36 1.68 5.72 1 3 C0.67 3 0.34 3 0 3 Z " class="dynamic-fill" transform="translate(120,227)"/>
<path d="M0 0 C13.73397062 9.73863371 13.73397062 9.73863371 17 17 C14.10147635 15.68692628 12.01722783 14.27315362 9.765625 12.03125 C8.90517578 11.17466797 8.90517578 11.17466797 8.02734375 10.30078125 C7.44082031 9.70652344 6.85429687 9.11226562 6.25 8.5 C5.64800781 7.90574219 5.04601562 7.31148437 4.42578125 6.69921875 C3.85730469 6.12816406 3.28882813 5.55710938 2.703125 4.96875 C2.18395508 4.44732422 1.66478516 3.92589844 1.12988281 3.38867188 C0 2 0 2 0 0 Z " class="dynamic-fill" transform="translate(135,171)"/>
<path d="M0 0 C3.00380655 1.50190327 4.1970836 4.12099748 5.875 6.9375 C3.20833333 5.60416667 0.54166667 4.27083333 -2.125 2.9375 C-4.105 4.9175 -6.085 6.8975 -8.125 8.9375 C-8.785 8.6075 -9.445 8.2775 -10.125 7.9375 C-8.89100937 6.56872884 -7.63719377 5.21780834 -6.375 3.875 C-5.67890625 3.12089844 -4.9828125 2.36679688 -4.265625 1.58984375 C-2.125 -0.0625 -2.125 -0.0625 0 0 Z " class="dynamic-fill" transform="translate(127.125,162.0625)"/>

</svg>
